<svg width="16" height="16" viewBox="0 0 16 16" fill="none" xmlns="http://www.w3.org/2000/svg">
<path d="M8.00008 1C11.8598 1 15 3.71939 15 7.06224C15 8.33779 14.548 9.55811 13.6924 10.5914C13.4723 10.8571 13.3874 10.9394 13.3726 10.9531C13.178 11.1348 13.0672 11.4596 13.0979 11.629L13.5519 14.1174C13.5995 14.3772 13.5285 14.5287 13.4608 14.6102C13.3843 14.7018 13.2737 14.752 13.1494 14.752C13.0329 14.752 12.9087 14.7082 12.7802 14.6215L10.4124 13.0223C10.3004 12.9467 10.0926 12.8915 9.91899 12.8915C9.87139 12.8915 9.82721 12.8958 9.79159 12.9034C9.75068 12.9126 8.78018 13.1239 7.99992 13.1239C4.14017 13.1239 1 10.4045 1 7.06224C1.00016 3.71939 4.14032 1 8.00008 1ZM8.00008 12.6286C8.72558 12.6286 9.67586 12.422 9.6855 12.4198C9.98868 12.3529 10.4364 12.4407 10.6899 12.6118L13.0576 14.2109C13.0609 14.2131 13.064 14.2151 13.0671 14.2171C13.0665 14.2135 13.0658 14.2098 13.0651 14.2061L12.611 11.7175C12.5461 11.3613 12.7281 10.8772 13.0333 10.5925C13.0341 10.5916 13.1097 10.5183 13.311 10.2755C14.092 9.33209 14.5049 8.22112 14.5049 7.06224C14.5047 3.99223 11.5868 1.49513 8.00008 1.49513C4.41332 1.49513 1.49544 3.99223 1.49544 7.06209C1.49544 10.1315 4.41332 12.6286 8.00008 12.6286Z" fill="#657181"/>
<path d="M8.0001 7.81255C7.58567 7.81255 7.2497 7.47659 7.2497 7.06216C7.2497 6.64773 7.58567 6.31177 8.0001 6.31177C8.41453 6.31177 8.75049 6.64773 8.75049 7.06216C8.75049 7.47659 8.41453 7.81255 8.0001 7.81255Z" fill="#657181"/>
<path d="M5.07383 7.81255C4.6594 7.81255 4.32343 7.47659 4.32343 7.06216C4.32343 6.64773 4.6594 6.31177 5.07383 6.31177C5.48826 6.31177 5.82422 6.64773 5.82422 7.06216C5.82422 7.47659 5.48826 7.81255 5.07383 7.81255Z" fill="#657181"/>
<path d="M10.9264 7.81255C10.5119 7.81255 10.176 7.47659 10.176 7.06216C10.176 6.64773 10.5119 6.31177 10.9264 6.31177C11.3408 6.31177 11.6768 6.64773 11.6768 7.06216C11.6768 7.47659 11.3408 7.81255 10.9264 7.81255Z" fill="#657181"/>
</svg>
