<svg width="20" height="19" viewBox="0 0 20 19" fill="none" xmlns="http://www.w3.org/2000/svg">
  <g opacity="0.75" clip-path="url(#clip0)">
    <path d="M16.5585 6.98412C15.6803 3.48591 12.1326 1.36192 8.63443 2.24006C5.90066 2.92632 3.91564 5.28908 3.71111 8.10021C1.77002 8.42032 0.455939 10.2534 0.776046 12.1944C1.06061 13.9201 2.55588 15.1839 4.3048 15.1769H7.27322V13.9896H4.3048C2.99327 13.9896 1.93006 12.9264 1.93006 11.6148C1.93006 10.3033 2.99327 9.24009 4.3048 9.24009C4.6327 9.24009 4.89848 8.9743 4.89848 8.6464C4.89552 5.69545 7.28536 3.30082 10.2363 3.29789C12.7908 3.29533 14.9898 5.10125 15.4839 7.60745C15.5327 7.85769 15.7358 8.04886 15.9885 8.0824C17.6116 8.31353 18.7399 9.81663 18.5088 11.4397C18.3013 12.8971 17.0569 13.9822 15.5848 13.9896H13.2101V15.1769H15.5848C17.88 15.17 19.735 13.3037 19.728 11.0086C19.7222 9.09801 18.4145 7.43751 16.5585 6.98412Z" fill="white"/>
    <path d="M9.82005 9.4124L7.44531 11.7871L8.28241 12.6242L9.64788 11.2647V16.9581H10.8353V11.2647L12.1948 12.6242L13.0319 11.7871L10.6571 9.4124C10.4256 9.1822 10.0516 9.1822 9.82005 9.4124Z" fill="white"/>
  </g>
  <defs>
    <clipPath id="clip0">
      <rect width="19" height="19" fill="white" transform="translate(0.728027)"/>
    </clipPath>
  </defs>
</svg>
