<svg width="32" height="32" viewBox="0 0 32 32" fill="none" xmlns="http://www.w3.org/2000/svg">
  <path d="M25.5261 26.6817C25.751 26.6817 25.9184 26.5228 26.0193 26.3449C26.1232 26.1616 26.1817 25.9207 26.1817 25.6644V24.3356C26.1817 24.0793 26.1232 23.8384 26.0193 23.6551C25.9184 23.4772 25.751 23.3183 25.5261 23.3183H6.4739C6.24898 23.3183 6.08158 23.4772 5.98072 23.6551C5.8768 23.8384 5.81827 24.0793 5.81827 24.3356V25.6644C5.81827 25.9207 5.8768 26.1616 5.98072 26.3449C6.08158 26.5228 6.24898 26.6817 6.4739 26.6817H25.5261Z" fill="url(#paint0_linear)" stroke="#657181" stroke-width="0.363455"/>
  <path d="M11.6061 21.6864C11.6061 21.7663 11.5139 21.8958 11.313 21.8958H6.614C6.41313 21.8958 6.32091 21.7663 6.32091 21.6864V9.87076C6.32091 9.79085 6.41313 9.66142 6.614 9.66142H11.313C11.5139 9.66142 11.6061 9.79085 11.6061 9.87076V21.6864Z" stroke="#657181" stroke-width="0.454318"/>
  <path d="M18.6667 21.6856C18.6667 21.7655 18.5744 21.8949 18.3736 21.8949H13.6745C13.4737 21.8949 13.3815 21.7655 13.3815 21.6856V5.4365C13.3815 5.35658 13.4737 5.22716 13.6745 5.22716H18.3736C18.5744 5.22716 18.6667 5.35658 18.6667 5.4365V21.6856Z" stroke="#657181" stroke-width="0.454318"/>
  <path d="M25.7736 21.7242C25.7736 21.8041 25.6814 21.9336 25.4805 21.9336H20.7814C20.5806 21.9336 20.4884 21.8041 20.4884 21.7242V12.4692C20.4884 12.3893 20.5806 12.2599 20.7814 12.2599H25.4805C25.6814 12.2599 25.7736 12.3893 25.7736 12.4692V21.7242Z" stroke="#657181" stroke-width="0.454318"/>
  <defs>
    <linearGradient id="paint0_linear" x1="28.5" y1="25.8625" x2="7.06538" y2="17.8279" gradientUnits="userSpaceOnUse">
      <stop offset="0.00949925" stop-color="#5DB9FF"/>
      <stop offset="0.994653" stop-color="#3980E8"/>
    </linearGradient>
  </defs>
</svg>
