<svg width="32" height="32" viewBox="0 0 32 32" fill="none" xmlns="http://www.w3.org/2000/svg">
<path fill-rule="evenodd" clip-rule="evenodd" d="M5.35 6.7C4.43873 6.7 3.7 7.43873 3.7 8.35V23.85C3.7 24.7613 4.43873 25.5 5.35 25.5H21.7477C22.3138 25.5 22.8404 25.2098 23.1427 24.7311L27.8965 17.2042C28.2292 16.6775 28.2369 16.0084 27.9163 15.4742L23.1325 7.50108C22.8343 7.00409 22.2972 6.7 21.7176 6.7H5.35ZM3 8.35C3 7.05213 4.05213 6 5.35 6H21.7176C22.5431 6 23.308 6.4331 23.7327 7.14094L28.5166 15.114C28.9731 15.8748 28.9622 16.8279 28.4884 17.578L23.7346 25.1049C23.304 25.7866 22.554 26.2 21.7477 26.2H5.35C4.05213 26.2 3 25.1479 3 23.85V8.35ZM12.85 21.9C16.0533 21.9 18.65 19.3033 18.65 16.1C18.65 12.8967 16.0533 10.3 12.85 10.3C9.64675 10.3 7.05 12.8967 7.05 16.1C7.05 19.3033 9.64675 21.9 12.85 21.9ZM12.85 22.6C16.4399 22.6 19.35 19.6899 19.35 16.1C19.35 12.5101 16.4399 9.6 12.85 9.6C9.26015 9.6 6.35 12.5101 6.35 16.1C6.35 19.6899 9.26015 22.6 12.85 22.6ZM12.8503 13.1C13.016 13.1 13.1503 13.2343 13.1503 13.4V15.8002H15.5505C15.7162 15.8002 15.8505 15.9345 15.8505 16.1002C15.8505 16.2659 15.7162 16.4002 15.5505 16.4002H13.1503V18.8005C13.1503 18.9662 13.016 19.1005 12.8503 19.1005C12.6847 19.1005 12.5503 18.9662 12.5503 18.8005V16.4002H10.15C9.98431 16.4002 9.85 16.2659 9.85 16.1002C9.85 15.9345 9.98431 15.8002 10.15 15.8002H12.5503V13.4C12.5503 13.2343 12.6847 13.1 12.8503 13.1Z" fill="#657181"/>
</svg>
