<svg width="32" height="32" viewBox="0 0 32 32" fill="none" xmlns="http://www.w3.org/2000/svg">
  <path d="M16 6.5L28 12.5L16 18.5L4 12.5L16 6.5Z" fill="url(#paint0_linear)"/>
  <path d="M28.5 16.2796C28.5 16.1708 28.4381 16.0713 28.3403 16.023L24.8462 14.3009L28.3405 12.5761C28.4381 12.5279 28.5 12.4284 28.5 12.3195C28.5 12.2105 28.4381 12.1112 28.3405 12.0629L16.1267 6.02963C16.047 5.99012 15.953 5.99012 15.8733 6.02963L3.65953 12.0629C3.56187 12.1112 3.5 12.2105 3.5 12.3195C3.5 12.4284 3.56187 12.5279 3.65953 12.5761L7.15384 14.3009L3.65972 16.023C3.56187 16.0713 3.5 16.1708 3.5 16.2796C3.5 16.3886 3.56169 16.4882 3.65953 16.5364L7.15384 18.2611L3.65972 19.9833C3.56187 20.0316 3.5 20.1311 3.5 20.2399C3.5 20.3489 3.56169 20.4485 3.65953 20.4967L15.8733 26.53C15.9132 26.5497 15.9566 26.5596 16 26.5596C16.0434 26.5596 16.0868 26.5497 16.1267 26.53L28.3405 20.4967C28.4383 20.4485 28.5 20.3489 28.5 20.2399C28.5 20.1311 28.4381 20.0316 28.3403 19.9833L24.8462 18.2611L28.3405 16.5364C28.4383 16.4882 28.5 16.3886 28.5 16.2796ZM16 6.60551L27.5674 12.3195L16 18.0287L4.43258 12.3195L16 6.60551ZM24.2011 18.5816L27.5669 20.2405L16 25.9541L4.43314 20.2405L7.79892 18.5816L15.8733 22.5648C15.9133 22.5846 15.9566 22.5945 16 22.5945C16.0434 22.5945 16.0867 22.5846 16.1267 22.5648L24.2011 18.5816ZM16 21.989L4.43314 16.2802L7.79892 14.6211L15.8733 18.6046C15.9132 18.6243 15.9566 18.6342 16 18.6342C16.0434 18.6342 16.0868 18.6243 16.1267 18.6046L24.2011 14.6211L27.5669 16.2802L16 21.989Z" fill="#657181"/>
  <path d="M21.4818 11.4018C21.5873 11.4018 21.6887 11.3433 21.7386 11.2423C21.8087 11.1007 21.7505 10.929 21.6087 10.859L16.1269 8.15124C15.9857 8.08135 15.8135 8.13912 15.7436 8.28113C15.6735 8.42277 15.7316 8.59442 15.8735 8.66449L21.3553 11.3722C21.3959 11.3923 21.4391 11.4018 21.4818 11.4018Z" fill="#657181"/>
  <path d="M22.7094 12.0415L23.7931 12.5767C23.8339 12.5968 23.877 12.6063 23.9197 12.6063C24.0252 12.6063 24.1267 12.5478 24.1765 12.4468C24.2466 12.3052 24.1884 12.1333 24.0466 12.0634L22.9629 11.5282C22.8209 11.4579 22.6492 11.5163 22.5795 11.6581C22.5094 11.7997 22.5676 11.9716 22.7094 12.0415Z" fill="#657181"/>
  <defs>
    <linearGradient id="paint0_linear" x1="31" y1="15.95" x2="2.03077" y2="12.6923" gradientUnits="userSpaceOnUse">
      <stop offset="0.00949925" stop-color="#5DB9FF"/>
      <stop offset="0.994653" stop-color="#3980E8"/>
    </linearGradient>
  </defs>
</svg>
