<svg width="32" height="32" viewBox="0 0 32 32" fill="none" xmlns="http://www.w3.org/2000/svg">
  <path d="M21.6591 5.5H10.3409C7.67165 5.5 5.5 7.67165 5.5 10.3411V21.6592C5.5 24.3283 7.67165 26.5 10.3409 26.5H21.6591C24.3283 26.5 26.5 24.3283 26.5 21.6592V10.3411C26.5 7.67165 24.3283 5.5 21.6591 5.5ZM25.8636 21.6592C25.8636 23.9775 23.9775 25.8636 21.6591 25.8636H10.3409C8.02246 25.8636 6.13636 23.9775 6.13636 21.6592V10.3411C6.13636 8.02246 8.02246 6.13636 10.3409 6.13636H21.6591C23.9775 6.13636 25.8636 8.02246 25.8636 10.3411V21.6592Z" fill="#657181"/>
  <path d="M22.7499 12.6479L15.4677 20.6354C15.0192 21.1251 14.2685 21.155 13.7846 20.7023L9.02687 16.206C8.54232 15.7521 8.51315 14.9883 8.9616 14.4967C9.40775 14.0083 10.1608 13.9784 10.6447 14.4298L14.529 18.1073L21.0016 11.0068C21.4477 10.5165 22.2032 10.4865 22.6847 10.9399C23.1668 11.392 23.1959 12.1564 22.7499 12.6479Z" fill="url(#paint0_linear)" stroke="#657181" stroke-width="0.5"/>
  <defs>
    <linearGradient id="paint0_linear" x1="25.14" y1="18.455" x2="7.43477" y2="17.701" gradientUnits="userSpaceOnUse">
      <stop offset="0.00949925" stop-color="#5DB9FF"/>
      <stop offset="0.994653" stop-color="#3980E8"/>
    </linearGradient>
  </defs>
</svg>
