<svg width="30" height="30" viewBox="0 0 34 34" fill="none" xmlns="http://www.w3.org/2000/svg">
<path d="M12.0832 5C11.531 5 11.0832 5.44772 11.0832 6V9.84306H7C6.44771 9.84306 6 10.2908 6 10.8431V27.2253C6 27.7776 6.44772 28.2253 7 28.2253H19.6043C20.1565 28.2253 20.6043 27.7776 20.6043 27.2253V23.409H24.6875C25.2398 23.409 25.6875 22.9613 25.6875 22.409V10.2712L20.3891 5H12.0832ZM20.0663 26.6901C20.0663 27.2424 19.6186 27.6901 19.0663 27.6901H7.53791C6.98562 27.6901 6.53791 27.2424 6.53791 26.6901V11.3514C6.53791 10.7992 6.98563 10.3514 7.53791 10.3514H14.9562V15.4353H20.0663V26.6901ZM15.4941 14.9002V10.7796L19.636 14.9002H15.4941ZM25.1496 21.8738C25.1496 22.4261 24.7019 22.8738 24.1496 22.8738H20.6043V15.0875H20.5774C20.5609 15.0555 20.5381 15.0272 20.5103 15.0043C20.4826 14.9813 20.4505 14.9641 20.416 14.9537L15.4941 10.0036C15.4802 9.96244 15.4553 9.92579 15.4222 9.89752C15.3891 9.86926 15.3489 9.85044 15.3058 9.84306H11.6212V6.53514C11.6212 5.98286 12.0689 5.53514 12.6212 5.53514H20.0663V10.5923H25.1496V21.8738ZM20.6043 5.96326L24.7462 10.0571H20.6043V5.96326Z" fill="#657181" stroke="#657181" stroke-width="0.2"/>
<circle r="6.20695" transform="matrix(0.703371 -0.710823 0.703371 0.710823 23.2786 23.5619)" fill="url(#paint0_linear)" stroke="#657181" stroke-width="0.6"/>
<path d="M25.9665 23.2596C25.9868 23.2595 26.007 23.2635 26.0258 23.2714C26.0446 23.2792 26.0617 23.2907 26.076 23.3052C26.0904 23.3198 26.1018 23.337 26.1095 23.356C26.1173 23.375 26.1212 23.3954 26.1212 23.4159C26.1212 23.4365 26.1173 23.4569 26.1095 23.4759C26.1018 23.4949 26.0904 23.5121 26.076 23.5267C26.0617 23.5412 26.0446 23.5527 26.0258 23.5605C26.007 23.5684 25.9868 23.5724 25.9665 23.5723L23.2878 23.5712L23.2889 26.2782C23.289 26.2988 23.285 26.3191 23.2773 26.3381C23.2695 26.3571 23.2582 26.3744 23.2438 26.3889C23.2294 26.4035 23.2123 26.415 23.1935 26.4228C23.1747 26.4306 23.1545 26.4346 23.1342 26.4345C23.1139 26.4346 23.0937 26.4306 23.0749 26.4228C23.0561 26.415 23.039 26.4035 23.0246 26.3889C23.0103 26.3744 22.9989 26.3571 22.9911 26.3381C22.9834 26.3191 22.9794 26.2988 22.9795 26.2782L22.9806 23.5712L20.302 23.5723C20.2609 23.5723 20.2216 23.5558 20.1926 23.5265C20.1782 23.512 20.1668 23.4947 20.159 23.4758C20.1513 23.4568 20.1473 23.4365 20.1473 23.4159C20.1473 23.3954 20.1513 23.3751 20.159 23.3561C20.1668 23.3372 20.1782 23.3199 20.1926 23.3054C20.2216 23.2761 20.2609 23.2596 20.302 23.2596L22.9806 23.2607L22.9795 20.5537C22.9795 20.5122 22.9958 20.4725 23.0248 20.4431C23.0538 20.4138 23.0932 20.3974 23.1342 20.3974C23.1752 20.3974 23.2146 20.4138 23.2436 20.4431C23.2726 20.4725 23.2889 20.5122 23.2889 20.5537L23.2878 23.2607L25.9665 23.2596Z" fill="#F2F6FB" stroke="#F2F6FB" stroke-width="0.3"/>
<defs>
<linearGradient id="paint0_linear" x1="14.6406" y1="10.2484" x2="-1.21632" y2="9.35687" gradientUnits="userSpaceOnUse">
<stop offset="0.00949925" stop-color="#5DB9FF"/>
<stop offset="0.994653" stop-color="#3980E8"/>
</linearGradient>
</defs>
</svg>
