<svg width="32" height="32" viewBox="0 0 32 32" fill="none" xmlns="http://www.w3.org/2000/svg">
  <path d="M23.5205 13.3399L23.584 13.5183H23.7733H26.0833C26.2553 13.5183 26.4202 13.5866 26.5418 13.7082C26.6634 13.8298 26.7317 13.9947 26.7317 14.1667V17.8333C26.7317 18.0053 26.6634 18.1702 26.5418 18.2918C26.4202 18.4134 26.2553 18.4817 26.0833 18.4817H23.7733H23.5879L23.5224 18.6552C23.4204 18.9251 23.3126 19.1857 23.1989 19.4369L23.1224 19.606L23.2536 19.7372L24.5553 21.0389L24.5561 21.0397C24.6168 21.0999 24.6651 21.1716 24.698 21.2507C24.7309 21.3297 24.7479 21.4144 24.7479 21.5C24.7479 21.5856 24.7309 21.6703 24.698 21.7493C24.6651 21.8284 24.6168 21.9001 24.5561 21.9603L24.5553 21.9611L21.9611 24.5553L21.9603 24.5561C21.9001 24.6168 21.8284 24.6651 21.7494 24.698C21.6703 24.7309 21.5856 24.7479 21.5 24.7479C21.4144 24.7479 21.3297 24.7309 21.2507 24.698C21.1716 24.6651 21.0999 24.6168 21.0397 24.5561L21.0389 24.5553L19.7372 23.2536L19.6032 23.1196L19.4322 23.2011C19.184 23.3193 18.9267 23.4258 18.6601 23.5205L18.4817 23.584V23.7733V26.0833C18.4817 26.2553 18.4134 26.4202 18.2918 26.5418C18.1702 26.6634 18.0053 26.7317 17.8333 26.7317H14.1667C13.9947 26.7317 13.8298 26.6634 13.7082 26.5418C13.5866 26.4202 13.5183 26.2553 13.5183 26.0833V23.7733V23.5879L13.3448 23.5224C13.0749 23.4204 12.8143 23.3126 12.5631 23.1989L12.394 23.1224L12.2628 23.2536L10.9611 24.5553L10.9603 24.5561C10.9001 24.6168 10.8284 24.6651 10.7494 24.698C10.6703 24.7309 10.5856 24.7479 10.5 24.7479C10.4144 24.7479 10.3297 24.7309 10.2507 24.698C10.1716 24.6651 10.0999 24.6168 10.0397 24.5561L10.0389 24.5553L7.44471 21.9611L7.44393 21.9603C7.38316 21.9001 7.33492 21.8284 7.30201 21.7493C7.26909 21.6703 7.25214 21.5856 7.25214 21.5C7.25214 21.4144 7.26909 21.3297 7.30201 21.2507L7.05435 21.1475L7.30201 21.2507C7.33493 21.1716 7.38316 21.0999 7.44393 21.0397L7.44471 21.0389L8.74638 19.7372L8.8776 19.606L8.80111 19.4369C8.68744 19.1857 8.57961 18.9251 8.47765 18.6552L8.41211 18.4817H8.22667H5.91667C5.74471 18.4817 5.57979 18.4134 5.4582 18.2918C5.3366 18.1702 5.26829 18.0053 5.26829 17.8333V14.1667C5.26829 13.9947 5.3366 13.8298 5.4582 13.7082C5.57979 13.5866 5.74471 13.5183 5.91667 13.5183H8.22667H8.41211L8.47765 13.3448C8.57961 13.0749 8.68744 12.8143 8.80111 12.5631L8.8776 12.394L8.74638 12.2628L7.44471 10.9611L7.44393 10.9603C7.38316 10.9001 7.33493 10.8284 7.30201 10.7494C7.26909 10.6703 7.25214 10.5856 7.25214 10.5C7.25214 10.4144 7.26909 10.3297 7.30201 10.2507C7.33493 10.1716 7.38316 10.0999 7.44393 10.0397L7.44471 10.0389L10.0389 7.44471L10.0397 7.44393C10.0999 7.38316 10.1716 7.33493 10.2507 7.30201C10.3297 7.26909 10.4144 7.25214 10.5 7.25214C10.5856 7.25214 10.6703 7.26909 10.7494 7.30201C10.8284 7.33493 10.9001 7.38316 10.9603 7.44393L10.9611 7.44471L12.2628 8.74638L12.394 8.8776L12.5631 8.80111C12.8143 8.68744 13.0749 8.57961 13.3448 8.47765L13.5183 8.41211V8.22667V5.91667C13.5183 5.74471 13.5866 5.57979 13.7082 5.4582C13.8298 5.3366 13.9947 5.26829 14.1667 5.26829H17.8333C18.0053 5.26829 18.1702 5.3366 18.2918 5.4582C18.4134 5.57979 18.4817 5.74471 18.4817 5.91667V8.22667V8.41211L18.6552 8.47765C18.9251 8.57961 19.1857 8.68744 19.4369 8.80111L19.606 8.8776L19.7372 8.74638L21.0389 7.44471L21.0397 7.44393C21.0999 7.38316 21.1716 7.33493 21.2507 7.30201L21.1475 7.05435L21.2507 7.30201C21.3297 7.26909 21.4144 7.25214 21.5 7.25214C21.5856 7.25214 21.6703 7.26909 21.7493 7.30201C21.8284 7.33492 21.9001 7.38316 21.9603 7.44393L21.9611 7.44471L24.5553 10.0389L24.5561 10.0397C24.6168 10.0999 24.6651 10.1716 24.698 10.2506C24.7309 10.3297 24.7479 10.4144 24.7479 10.5C24.7479 10.5856 24.7309 10.6703 24.698 10.7493C24.6651 10.8284 24.6168 10.9001 24.5561 10.9603L24.5553 10.9611L23.2536 12.2628L23.1196 12.3968L23.2011 12.5678C23.3193 12.816 23.4258 13.0733 23.5205 13.3399ZM13.8139 19.2718C14.461 19.7042 15.2217 19.935 16 19.935C17.0436 19.935 18.0445 19.5204 18.7824 18.7824C19.5204 18.0445 19.935 17.0436 19.935 16C19.935 15.2217 19.7042 14.461 19.2718 13.8139C18.8394 13.1668 18.2249 12.6624 17.5058 12.3646C16.7868 12.0667 15.9956 11.9888 15.2323 12.1406C14.469 12.2925 13.7679 12.6672 13.2176 13.2176C12.6672 13.7679 12.2925 14.469 12.1406 15.2323C11.9888 15.9956 12.0667 16.7868 12.3646 17.5058C12.6624 18.2249 13.1668 18.8394 13.8139 19.2718Z" stroke="#657181" stroke-width="0.536585"/>
  <circle cx="15.9997" cy="16" r="3.66667" fill="url(#paint0_linear)"/>
  <defs>
    <linearGradient id="paint0_linear" x1="20.583" y1="18.1084" x2="11.6476" y2="17.606" gradientUnits="userSpaceOnUse">
      <stop offset="0.00949925" stop-color="#5DB9FF"/>
      <stop offset="0.994653" stop-color="#3980E8"/>
    </linearGradient>
  </defs>
</svg>
