<svg width="32" height="32" viewBox="0 0 32 32" fill="none" xmlns="http://www.w3.org/2000/svg">
  <path d="M27.1364 8.27366L23.798 4.95245C23.6417 4.79935 23.4309 4.7135 23.2112 4.7135C22.9916 4.7135 22.7808 4.79935 22.6244 4.95245L19.2836 8.27366C19.2049 8.34915 19.1423 8.4396 19.0995 8.5396C19.0567 8.63961 19.0347 8.74713 19.0347 8.85577C19.0347 8.9644 19.0567 9.07193 19.0995 9.17194C19.1423 9.27194 19.2049 9.36238 19.2836 9.43787L22.622 12.7496C22.6978 12.8283 22.7888 12.891 22.8897 12.9338C22.9906 12.9766 23.0991 12.9987 23.2088 12.9987C23.3185 12.9987 23.4271 12.9766 23.528 12.9338C23.6288 12.891 23.7199 12.8283 23.7956 12.7496L27.1364 9.43787C27.2158 9.36273 27.279 9.2724 27.3221 9.17235C27.3653 9.0723 27.3875 8.9646 27.3875 8.85577C27.3875 8.74694 27.3653 8.63924 27.3221 8.53919C27.279 8.43913 27.2158 8.3488 27.1364 8.27366ZM26.8004 9.10218L23.4572 12.4139C23.4258 12.4478 23.3876 12.4748 23.345 12.4934C23.3025 12.5119 23.2565 12.5214 23.21 12.5214C23.1636 12.5214 23.1176 12.5119 23.0751 12.4934C23.0325 12.4748 22.9943 12.4478 22.9628 12.4139L19.6244 9.10218C19.5903 9.07096 19.563 9.03305 19.5443 8.99085C19.5256 8.94864 19.516 8.90305 19.516 8.85696C19.516 8.81087 19.5256 8.76528 19.5443 8.72307C19.563 8.68086 19.5903 8.64295 19.6244 8.61174L22.9604 5.29766C22.9919 5.26375 23.0301 5.23669 23.0727 5.21817C23.1152 5.19966 23.1612 5.1901 23.2076 5.1901C23.2541 5.1901 23.3001 5.19966 23.3426 5.21817C23.3852 5.23669 23.4234 5.26375 23.4548 5.29766L26.8004 8.60936C26.835 8.64059 26.8626 8.67864 26.8815 8.72107C26.9004 8.7635 26.9102 8.80938 26.9102 8.85577C26.9102 8.90216 26.9004 8.94803 26.8815 8.99046C26.8626 9.03289 26.835 9.07094 26.8004 9.10218Z" fill="#657181"/>
  <path d="M8.4327 5.06885C7.67797 5.06885 6.94018 5.29086 6.31265 5.70681C5.68511 6.12277 5.196 6.71398 4.90718 7.40568C4.61835 8.09739 4.54278 8.85852 4.69002 9.59283C4.83727 10.3271 5.2007 11.0016 5.73438 11.5311C6.26806 12.0605 6.948 12.421 7.68824 12.5671C8.42847 12.7131 9.19574 12.6382 9.89302 12.3516C10.5903 12.0651 11.1863 11.5799 11.6056 10.9574C12.0249 10.3349 12.2487 9.60301 12.2487 8.85432C12.2474 7.85074 11.845 6.88862 11.1296 6.17898C10.4143 5.46934 9.44438 5.07011 8.4327 5.06885ZM8.4327 12.166C7.7729 12.166 7.12792 11.9719 6.57932 11.6083C6.03072 11.2447 5.60313 10.7278 5.35064 10.1231C5.09814 9.51842 5.03208 8.85303 5.1608 8.21109C5.28952 7.56914 5.60724 6.97948 6.07379 6.51666C6.54034 6.05385 7.13476 5.73867 7.78188 5.61098C8.429 5.48329 9.09976 5.54882 9.70933 5.79929C10.3189 6.04977 10.8399 6.47393 11.2065 7.01815C11.573 7.56236 11.7687 8.20218 11.7687 8.8567C11.7674 9.734 11.4156 10.575 10.7902 11.1953C10.1649 11.8157 9.31707 12.1648 8.4327 12.166Z" fill="#657181"/>
  <path d="M16.4152 10.5971L18.5128 8.85438L16.4152 7.11401L16.1056 7.47828L17.4784 8.6163H12.832V9.09246H17.4784L16.1056 10.2329L16.4152 10.5971Z" fill="#657181"/>
  <path d="M22.9695 13.5232V18.13L21.8223 16.7706L21.4551 17.0753L23.2095 19.1562L24.9663 17.0753L24.5967 16.7706L23.4495 18.13V13.5232H22.9695Z" fill="#657181"/>
  <path d="M5.2002 26.5036H11.6538V20.1135H5.2002V26.5036ZM5.6802 20.5897H11.1738V26.0274H5.6802V20.5897Z" fill="#657181"/>
  <path d="M19.3936 23.3079C19.394 24.0569 19.6185 24.7889 20.0385 25.4113C20.4585 26.0337 21.0552 26.5185 21.7531 26.8044C22.451 27.0903 23.2187 27.1643 23.959 27.0172C24.6994 26.8701 25.3791 26.5085 25.9121 25.978C26.4452 25.4476 26.8076 24.7722 26.9536 24.0373C27.0995 23.3024 27.0225 22.5411 26.7321 21.8497C26.4417 21.1583 25.9511 20.5679 25.3224 20.1532C24.6936 19.7385 23.955 19.5181 23.2 19.52C22.1895 19.5238 21.2218 19.9245 20.5084 20.6344C19.795 21.3442 19.3942 22.3055 19.3936 23.3079ZM23.2 19.9962C23.8598 19.9962 24.5047 20.1903 25.0533 20.5539C25.6019 20.9175 26.0295 21.4344 26.282 22.0391C26.5345 22.6438 26.6006 23.3092 26.4719 23.9511C26.3431 24.5931 26.0254 25.1827 25.5589 25.6455C25.0923 26.1084 24.4979 26.4235 23.8508 26.5512C23.2037 26.6789 22.5329 26.6134 21.9233 26.3629C21.3137 26.1124 20.7927 25.6883 20.4262 25.1441C20.0596 24.5998 19.864 23.96 19.864 23.3055C19.8652 22.4282 20.2171 21.5872 20.8425 20.9669C21.4678 20.3465 22.3156 19.9975 23.2 19.9962Z" fill="#657181"/>
  <path d="M14.8408 21.9296L14.5336 21.5653L12.4336 23.3057L14.5336 25.0484L14.8408 24.6842L13.468 23.5438H18.5944V23.0676H13.468L14.8408 21.9296Z" fill="#657181"/>
  <path d="M19.3599 8.79996L23.1999 4.95996L27.0399 8.79996L23.1999 12.64L19.3599 8.79996Z" fill="url(#paint0_linear)"/>
  <defs>
    <linearGradient id="paint0_linear" x1="27.9999" y1="11.008" x2="18.6421" y2="10.4818" gradientUnits="userSpaceOnUse">
      <stop offset="0.00949925" stop-color="#5DB9FF"/>
      <stop offset="0.994653" stop-color="#3980E8"/>
    </linearGradient>
  </defs>
</svg>
