<svg width="32" height="32" viewBox="0 0 32 32" fill="none" xmlns="http://www.w3.org/2000/svg">
<path d="M18.2619 5.52957L24.6328 11.6527M24.5266 25.2121C24.5266 25.9396 23.915 26.5296 23.1608 26.5296H8.99864C8.24432 26.5296 7.63281 25.9396 7.63281 25.2121V6.9616C7.63281 6.23409 8.24432 5.64418 8.99864 5.64418H18.1452V11.768H24.5266V25.2121Z" stroke="#657181" stroke-width="0.6"/>
<path d="M21 16C17.6866 16 15 18.6866 15 22C15 25.3134 17.6866 28 21 28C24.3134 28 27 25.3134 27 22C27 18.6866 24.3134 16 21 16ZM23.5915 20.0406L20.771 23.9513C20.7316 24.0064 20.6796 24.0512 20.6194 24.0821C20.5592 24.1131 20.4925 24.1292 20.4248 24.1292C20.3571 24.1292 20.2904 24.1131 20.2302 24.0821C20.17 24.0512 20.118 24.0064 20.0786 23.9513L18.4085 21.6371C18.3576 21.5661 18.4085 21.467 18.4955 21.467H19.1237C19.2603 21.467 19.3902 21.5326 19.4705 21.6451L20.4241 22.9683L22.5295 20.0487C22.6098 19.9375 22.7384 19.8705 22.8763 19.8705H23.5045C23.5915 19.8705 23.6424 19.9696 23.5915 20.0406Z" fill="url(#paint0_linear)"/>
<defs>
<linearGradient id="paint0_linear" x1="28.5" y1="25.45" x2="13.8784" y2="24.6279" gradientUnits="userSpaceOnUse">
<stop offset="0.00949925" stop-color="#5DB9FF"/>
<stop offset="0.994653" stop-color="#3980E8"/>
</linearGradient>
</defs>
</svg>
