<svg width="32" height="32" viewBox="0 0 32 32" fill="none" xmlns="http://www.w3.org/2000/svg">
<path d="M11.3009 6C17.0905 6 21.8008 10.0791 21.8008 15.0934C21.8008 17.0067 21.1227 18.8372 19.8394 20.3872C19.5092 20.7857 19.3818 20.9091 19.3597 20.9297C19.0678 21.2022 18.9016 21.6894 18.9476 21.9435L19.6287 25.6761C19.7001 26.0657 19.5935 26.293 19.492 26.4153C19.3772 26.5527 19.2113 26.6281 19.0248 26.6281C18.8501 26.6281 18.6639 26.5623 18.4712 26.4323L14.9194 24.0334C14.7514 23.92 14.4397 23.8372 14.1793 23.8372C14.1079 23.8372 14.0416 23.8437 13.9882 23.8552C13.9268 23.8689 12.4711 24.1858 11.3007 24.1858C5.51103 24.1858 0.800781 20.1067 0.800781 15.0934C0.801014 10.0791 5.51126 6 11.3009 6ZM11.3009 23.4429C12.3892 23.4429 13.8146 23.133 13.829 23.1297C14.2838 23.0294 14.9553 23.161 15.3357 23.4177L18.8872 25.8163C18.8921 25.8196 18.8967 25.8226 18.9014 25.8256C18.9005 25.8203 18.8995 25.8147 18.8984 25.8091L18.2173 22.0763C18.12 21.5419 18.393 20.8158 18.8508 20.3888C18.8519 20.3874 18.9653 20.2775 19.2673 19.9133C20.4388 18.4981 21.0581 16.8317 21.0581 15.0934C21.0579 10.4883 16.681 6.74269 11.3009 6.74269C5.92076 6.74269 1.54394 10.4883 1.54394 15.0931C1.54394 19.6972 5.92076 23.4429 11.3009 23.4429Z" fill="#657181"/>
<path d="M12.6387 16.0781H9.1582L7.96289 19.1016H7.30078L10.7461 10.5H11.127L14.502 19.1016H13.8281L12.6387 16.0781ZM9.375 15.5391H12.4395L11.2734 12.4512C11.1758 12.209 11.0586 11.873 10.9219 11.4434C10.8164 11.8184 10.7012 12.1582 10.5762 12.4629L9.375 15.5391Z" fill="#657181"/>
<path d="M23.3009 23.2166C27.712 23.2166 31.3008 20.1087 31.3008 16.2883C31.3008 14.8305 30.7842 13.4359 29.8064 12.2549C29.5548 11.9513 29.4578 11.8572 29.4409 11.8416C29.2185 11.6339 29.0919 11.2627 29.1269 11.0691L29.6459 8.22525C29.7003 7.92837 29.619 7.75521 29.5417 7.66206C29.4542 7.55735 29.3278 7.49993 29.1858 7.49993C29.0526 7.49993 28.9108 7.55006 28.7639 7.64908L26.0578 9.4768C25.9298 9.56319 25.6923 9.62631 25.4939 9.62631C25.4395 9.62631 25.389 9.62133 25.3483 9.61262C25.3016 9.60213 24.1924 9.36071 23.3007 9.36071C21.3557 9.36071 19.5706 9.96493 18.1825 10.968C16.4225 12.2398 15.3008 14.1528 15.3008 16.2883C15.301 20.1087 18.8897 23.2166 23.3009 23.2166Z" fill="url(#paint0_linear)"/>
<path d="M23.3009 23.2166C27.712 23.2166 31.3008 20.1087 31.3008 16.2883C31.3008 14.8305 30.7842 13.4359 29.8064 12.2549C29.5548 11.9513 29.4578 11.8572 29.4409 11.8416C29.2185 11.6339 29.0919 11.2627 29.1269 11.0691L29.6459 8.22525C29.7003 7.92837 29.619 7.75521 29.5417 7.66206C29.4542 7.55735 29.3278 7.49993 29.1858 7.49993C29.0526 7.49993 28.9108 7.55006 28.7639 7.64908L26.0578 9.4768C25.9298 9.56319 25.6923 9.62631 25.4939 9.62631C25.4395 9.62631 25.389 9.62133 25.3483 9.61262C25.3016 9.60213 24.1924 9.36071 23.3007 9.36071C18.8895 9.36071 15.3008 12.4686 15.3008 16.2883C15.301 20.1087 18.8897 23.2166 23.3009 23.2166ZM23.3009 9.92675C24.13 9.92675 25.216 10.1628 25.2271 10.1653C25.5736 10.2418 26.0852 10.1415 26.375 9.94595L29.0809 8.11841C29.0846 8.11592 29.0882 8.11361 29.0917 8.1113C29.091 8.11539 29.0903 8.11965 29.0894 8.12392L28.5705 10.968C28.4964 11.3751 28.7044 11.9283 29.0532 12.2537C29.0532 12.2537 29.1404 12.3385 29.3705 12.616C30.2631 13.6942 30.7349 14.9638 30.7349 16.2883C30.7347 19.7969 27.4 22.6507 23.3009 22.6507C19.2017 22.6507 15.867 19.7969 15.867 16.2885C15.867 12.7806 19.2017 9.92675 23.3009 9.92675Z" fill="#657181"/>
<path d="M21.3008 13.25C21.1627 13.25 21.0508 13.3619 21.0508 13.5C21.0508 13.6381 21.1627 13.75 21.3008 13.75V13.25ZM25.3008 13.5L25.5152 13.6286L25.7423 13.25H25.3008V13.5ZM20.3008 18.25C20.1627 18.25 20.0508 18.3619 20.0508 18.5C20.0508 18.6381 20.1627 18.75 20.3008 18.75V18.25ZM21.3008 13.75H25.3008V13.25H21.3008V13.75ZM25.0864 13.3714C24.592 14.1954 23.7509 15.432 22.8388 16.459C22.3826 16.9728 21.9148 17.4271 21.4694 17.7509C21.0175 18.0795 20.6209 18.25 20.3008 18.25V18.75C20.7807 18.75 21.284 18.5039 21.7634 18.1553C22.2493 17.8021 22.744 17.3188 23.2127 16.791C24.1507 15.7347 25.0096 14.4712 25.5152 13.6286L25.0864 13.3714Z" fill="white"/>
<path d="M25.3008 18.75C25.4389 18.75 25.5508 18.6381 25.5508 18.5C25.5508 18.3619 25.4389 18.25 25.3008 18.25V18.75ZM22.6508 17.2C22.9876 17.4526 23.518 17.8316 24.0167 18.1485C24.2656 18.3067 24.5109 18.4522 24.7224 18.5591C24.8281 18.6124 24.9294 18.6583 25.0213 18.6913C25.1083 18.7226 25.207 18.75 25.3008 18.75V18.25C25.3011 18.25 25.2986 18.25 25.293 18.2493C25.2874 18.2485 25.2797 18.2472 25.2697 18.2449C25.2494 18.2403 25.2231 18.2325 25.1904 18.2208C25.1247 18.1972 25.0433 18.161 24.9479 18.1128C24.7573 18.0165 24.5276 17.8808 24.2849 17.7265C23.8002 17.4184 23.2806 17.0474 22.9508 16.8L22.6508 17.2Z" fill="white"/>
<path d="M23.3008 12.5C23.3008 13.3 23.3008 13.5 23.3008 13.5" stroke="white" stroke-width="0.5" stroke-linecap="round"/>
<defs>
<linearGradient id="paint0_linear" x1="13.3008" y1="10.8397" x2="32.794" y2="11.9555" gradientUnits="userSpaceOnUse">
<stop offset="0.00949925" stop-color="#5DB9FF"/>
<stop offset="0.994653" stop-color="#3980E8"/>
</linearGradient>
</defs>
</svg>
