<svg width="32" height="32" viewBox="0 0 32 32" fill="none" xmlns="http://www.w3.org/2000/svg">
<path d="M12.1934 6V10.0218H8V25.2871H20.0478V21.2874H24.2412V10.3774L19.8703 6H12.1934ZM19.604 24.8427H8.44375V10.444H15.3884V14.6658H19.604V24.8427ZM15.8322 14.2214V10.7995L19.249 14.2214H15.8322ZM23.7975 20.843H20.0478V14.377H20.0256C20.012 14.3505 19.9932 14.327 19.9703 14.3079C19.9474 14.2888 19.921 14.2745 19.8925 14.2659L15.8322 10.1552C15.8207 10.121 15.8002 10.0905 15.7729 10.0671C15.7455 10.0436 15.7123 10.028 15.6769 10.0218H12.6372V6.4444H19.604V10.644H23.7975V20.843ZM20.0478 6.79992L23.4647 10.1996H20.0478V6.79992Z" fill="#657181" stroke="#657181" stroke-width="0.3"/>
</svg>
