<svg width="28" height="28" viewBox="0 0 28 28" fill="none" xmlns="http://www.w3.org/2000/svg">
<path d="M13.8019 11.619C12.4034 11.619 11.2656 12.757 11.2656 14.1555C11.2656 15.554 12.4034 16.692 13.8019 16.692C15.2002 16.692 16.3379 15.5542 16.3379 14.1555C16.3379 12.7568 15.2004 11.619 13.8019 11.619ZM13.8019 16.4676C12.5272 16.4676 11.49 15.4304 11.49 14.1555C11.49 12.8806 12.5272 11.8434 13.8019 11.8434C15.0765 11.8434 16.1135 12.8806 16.1135 14.1555C16.1135 15.4304 15.0765 16.4676 13.8019 16.4676Z" fill="#657181" stroke="#657181" stroke-width="0.4"/>
<path d="M23.13 12.5806C22.9729 11.694 22.4372 11.0854 22.4146 11.06L22.3728 11.0133L20.9474 11.2654C20.703 10.6648 20.3826 10.0955 19.9932 9.57085L20.9216 8.46542L20.9061 8.40864C20.8978 8.37812 20.6931 7.65284 19.9441 7.02157C19.2545 6.44327 18.4527 6.3212 18.419 6.31648L18.3571 6.30751L17.4655 7.37053C16.8845 7.05569 16.2597 6.81691 15.6063 6.6596V5.28914L15.558 5.25571C15.532 5.2373 14.9101 4.8125 13.9306 4.8125C13.0303 4.8125 12.3373 5.23416 12.3084 5.25212L12.2552 5.28488V6.59991C11.5896 6.7359 10.9435 6.96121 10.3315 7.27089L9.4936 6.2716L9.43525 6.27676C9.40361 6.27968 8.65386 6.35396 7.90322 6.98343C7.21384 7.56262 6.95375 8.33055 6.94298 8.36309L6.92323 8.42256L7.7385 9.39402C7.31033 9.93843 6.95824 10.5363 6.69007 11.174L5.44303 10.9541L5.40174 10.9956C5.3793 11.0181 4.85216 11.5569 4.68229 12.5216C4.5261 13.4082 4.82052 14.164 4.83309 14.1957L4.85643 14.2538L6.10032 14.4731C6.12905 15.1701 6.2491 15.8527 6.4578 16.5051L5.34923 17.1446L5.34429 17.2032C5.3416 17.2348 5.28437 17.9864 5.77471 18.8349C6.22464 19.6145 6.93535 20.0038 6.96542 20.02L7.02062 20.0496L8.15411 19.3959C8.61616 19.8932 9.14061 20.3274 9.71509 20.6887L9.25685 21.9472L9.29051 21.9952C9.30891 22.021 9.74853 22.6337 10.6691 22.9683C11.0131 23.0935 11.3892 23.157 11.7873 23.157C12.1154 23.157 12.3342 23.1125 12.3434 23.1105L12.4046 23.0977L12.8736 21.8087C13.6164 21.9014 14.1245 21.8942 14.8556 21.7906L15.3372 23.1143L15.394 23.1292C15.4032 23.1316 15.6188 23.1875 15.9599 23.1875C16.3381 23.1875 16.713 23.1208 17.0755 22.9893C17.9219 22.6812 18.4282 22.0484 18.4495 22.0217L18.4883 21.9726L17.996 20.6209C18.5368 20.2688 19.0341 19.8476 19.4757 19.3674L20.7452 20.1003L20.7982 20.0754C20.8269 20.0617 21.506 19.7345 21.9972 18.8876C22.4471 18.1073 22.4278 17.2968 22.4267 17.2627L22.4247 17.2003L21.1581 16.4696C21.348 15.8664 21.4617 15.2286 21.4967 14.5716L22.9507 14.3155L22.9752 14.2621C22.9884 14.2327 23.2976 13.5456 23.13 12.5806ZM22.7923 14.1149L21.2804 14.3813L21.2764 14.4713C21.247 15.1712 21.1258 15.8491 20.9167 16.486L20.8882 16.5728L22.2014 17.3304C22.1962 17.5279 22.1514 18.1697 21.8024 18.775C21.4225 19.4302 20.9124 19.755 20.7522 19.8456L19.4304 19.0824L19.3696 19.1502C18.9062 19.6659 18.3777 20.1136 17.7994 20.4807L17.7231 20.5283L18.2332 21.929C18.1026 22.0765 17.6573 22.5383 16.9983 22.7782C16.6608 22.9007 16.3113 22.9626 15.9595 22.9626C15.7461 22.9626 15.5858 22.9389 15.5062 22.9236L15.0035 21.541L14.9128 21.5549C14.4948 21.6178 14.1413 21.6472 13.8013 21.6472C13.5022 21.6472 13.1883 21.6238 12.8135 21.5742L12.7242 21.5623L12.2372 22.9005C12.1549 22.9128 11.994 22.9321 11.7873 22.9321C11.4154 22.9321 11.0649 22.8731 10.7456 22.7571C10.0335 22.4981 9.62555 22.0522 9.50886 21.9104L9.98842 20.5933L9.9101 20.5453C9.29747 20.1703 8.74183 19.7103 8.25891 19.178L8.19809 19.1109L7.01927 19.7911C6.85119 19.6879 6.31957 19.329 5.96927 18.7222C5.58979 18.0658 5.56399 17.4622 5.56601 17.2784L6.72844 16.6081L6.69949 16.521C6.4706 15.835 6.34358 15.1131 6.32159 14.375L6.3189 14.2837L5.02159 14.055C4.95921 13.8674 4.78237 13.2485 4.90355 12.5604C5.03506 11.814 5.40353 11.3354 5.52337 11.1958L6.82965 11.4263L6.86376 11.3423C7.13933 10.6651 7.51207 10.0327 7.97144 9.46246L8.02934 9.39065L7.17816 8.37633C7.25086 8.19254 7.5132 7.60459 8.04819 7.15532C8.62873 6.66836 9.21848 6.5382 9.3998 6.50813L10.2754 7.55253L10.3553 7.51078C10.9992 7.17552 11.6834 6.9372 12.3889 6.8021L12.48 6.7846V5.41257C12.6537 5.31854 13.2325 5.03646 13.9311 5.03646C14.6887 5.03646 15.2241 5.31585 15.3821 5.40943V6.83756L15.4694 6.85753C16.1646 7.01641 16.827 7.26999 17.4379 7.61087L17.5187 7.6562L18.447 6.54942C18.6405 6.58892 19.265 6.74466 19.7998 7.19325C20.3792 7.68156 20.6106 8.24011 20.6721 8.41358L19.7066 9.56322L19.7607 9.63458C20.1808 10.1871 20.5215 10.7919 20.7728 11.4323L20.8065 11.5178L22.2862 11.2564C22.409 11.411 22.7871 11.9316 22.9092 12.6192C23.0387 13.3658 22.8569 13.9426 22.7923 14.1149Z" fill="#657181" stroke="#657181" stroke-width="0.4"/>
</svg>
