<svg width="30" height="30" viewBox="0 0 32 32" fill="none" xmlns="http://www.w3.org/2000/svg">
<path fill-rule="evenodd" clip-rule="evenodd" d="M21.6494 9.72071L20.2227 11.1475L22.8025 13.7273L24.2293 12.3006L21.6494 9.72071ZM21.1898 9.19038C21.4437 8.93654 21.8552 8.93654 22.1091 9.19038L24.7596 11.8409C25.0135 12.0948 25.0135 12.5063 24.7596 12.7602L23.05 14.4698L22.8025 14.7173L22.555 14.4698L19.4802 11.395L19.2327 11.1475L19.4802 10.9L21.1898 9.19038ZM17.8058 12.5743L18.0532 12.8218L21.1281 15.8966L21.3756 16.1441L21.1281 16.3916L12.6723 24.8474L12.5698 24.9499H12.4248H9.35H9V24.5999V21.525V21.3801L9.10251 21.2776L17.5583 12.8218L17.8058 12.5743ZM17.8058 13.5643L9.7 21.67L9.7 24.2499L12.2798 24.2499L20.3856 16.1441L17.8058 13.5643ZM14 24.95L15.1438 24.25H23V24.95H14Z" fill="#657181"/>
</svg>
