<svg width="24" height="24" viewBox="0 0 24 24" fill="none" xmlns="http://www.w3.org/2000/svg">
  <circle cx="12" cy="12" r="7.9" stroke="url(#paint0_linear)" stroke-width="1.2"/>
  <path d="M11.209 13.4102C11.209 12.9772 11.2627 12.6322 11.3701 12.375C11.4775 12.1178 11.6891 11.8363 12.0049 11.5303C12.3239 11.221 12.5257 11.0013 12.6104 10.8711C12.7406 10.6725 12.8057 10.4577 12.8057 10.2266C12.8057 9.92057 12.7292 9.68783 12.5762 9.52832C12.4264 9.36556 12.2051 9.28418 11.9121 9.28418C11.6322 9.28418 11.4059 9.36393 11.2334 9.52344C11.0641 9.67969 10.9795 9.8929 10.9795 10.1631H9.79297C9.79948 9.58691 9.99479 9.13118 10.3789 8.7959C10.7663 8.46061 11.2773 8.29297 11.9121 8.29297C12.5664 8.29297 13.0758 8.45898 13.4404 8.79102C13.8083 9.12305 13.9922 9.58691 13.9922 10.1826C13.9922 10.7132 13.7448 11.2357 13.25 11.75L12.6494 12.3408C12.4346 12.585 12.3239 12.9414 12.3174 13.4102H11.209ZM11.126 14.9287C11.126 14.7367 11.1862 14.582 11.3066 14.4648C11.4271 14.3444 11.5898 14.2842 11.7949 14.2842C12.0033 14.2842 12.1676 14.346 12.2881 14.4697C12.4085 14.5902 12.4688 14.7432 12.4688 14.9287C12.4688 15.1077 12.4102 15.2575 12.293 15.3779C12.1758 15.4984 12.0098 15.5586 11.7949 15.5586C11.5801 15.5586 11.4141 15.4984 11.2969 15.3779C11.1829 15.2575 11.126 15.1077 11.126 14.9287Z" fill="url(#paint1_linear)"/>
  <defs>
    <linearGradient id="paint0_linear" x1="22.625" y1="16.8875" x2="1.91113" y2="15.7228" gradientUnits="userSpaceOnUse">
      <stop offset="0.00949925" stop-color="#5DB9FF"/>
      <stop offset="0.994653" stop-color="#3980E8"/>
    </linearGradient>
    <linearGradient id="paint1_linear" x1="15.125" y1="15.375" x2="9.01825" y2="15.2033" gradientUnits="userSpaceOnUse">
      <stop offset="0.00949925" stop-color="#5DB9FF"/>
      <stop offset="0.994653" stop-color="#3980E8"/>
    </linearGradient>
  </defs>
</svg>
