<svg width="32" height="32" viewBox="0 0 32 32" fill="none" xmlns="http://www.w3.org/2000/svg">
<rect x="9" y="24" width="9" height="0.7" rx="0.35" transform="rotate(-90 9 24)" fill="#657181"/>
<rect x="13" y="24" width="9" height="0.7" rx="0.35" transform="rotate(-90 13 24)" fill="#657181"/>
<rect x="17" y="24" width="9" height="0.7" rx="0.35" transform="rotate(-90 17 24)" fill="#657181"/>
<rect x="21" y="24" width="6" height="0.7" rx="0.35" transform="rotate(-90 21 24)" fill="#657181"/>
<rect x="5" y="8.57068" width="20" height="18" rx="4" stroke="#657181" stroke-width="0.7"/>
<line x1="5" y1="12.1707" x2="25" y2="12.1707" stroke="#657181" stroke-width="0.8"/>
<path d="M27.3897 10.5512L27.3965 10.7628L27.5982 10.8273L28.8206 11.2181C28.8735 11.235 28.9174 11.2722 28.9429 11.3215C28.9683 11.3709 28.9731 11.4283 28.9562 11.4811L28.3359 13.4214C28.319 13.4743 28.2818 13.5183 28.2325 13.5437C28.1831 13.5691 28.1257 13.5739 28.0729 13.557L26.8505 13.1662L26.653 13.1031L26.5241 13.2656C26.4264 13.3887 26.3273 13.5059 26.2269 13.6172L26.0879 13.7712L26.1829 13.9557L26.6515 14.8647L26.6521 14.8658C26.6649 14.8903 26.6726 14.917 26.675 14.9446C26.6774 14.9721 26.6742 14.9998 26.6658 15.0261C26.6574 15.0524 26.6439 15.0768 26.626 15.0979C26.6081 15.1189 26.5862 15.1362 26.5616 15.1488L26.5605 15.1494L24.7489 16.0833L24.7478 16.0838C24.7233 16.0966 24.6965 16.1044 24.669 16.1067C24.6415 16.1091 24.6138 16.106 24.5874 16.0975C24.5611 16.0891 24.5368 16.0756 24.5157 16.0577C24.4946 16.0398 24.4773 16.0179 24.4648 15.9933L24.4642 15.9922L23.9956 15.0832L23.8985 14.8949L23.6886 14.9234C23.5425 14.9433 23.3935 14.9557 23.2415 14.9606L23.0298 14.9674L22.9654 15.1691L22.5746 16.3915C22.5577 16.4443 22.5205 16.4883 22.4711 16.5137C22.4218 16.5392 22.3644 16.544 22.3115 16.5271L20.3712 15.9068C20.3184 15.8899 20.2744 15.8527 20.249 15.8033C20.2235 15.754 20.2187 15.6966 20.2356 15.6437L20.6264 14.4213L20.6896 14.2238L20.5271 14.095C20.4039 13.9972 20.2867 13.8982 20.1755 13.7977L20.0215 13.6587L19.837 13.7538L18.928 14.2224L18.9269 14.223C18.9024 14.2357 18.8756 14.2435 18.8481 14.2459L18.8737 14.5448L18.8481 14.2459C18.8206 14.2482 18.7929 14.2451 18.7666 14.2367C18.7402 14.2283 18.7159 14.2147 18.6948 14.1968L18.5006 14.4255L18.6948 14.1968C18.6737 14.179 18.6564 14.1571 18.6439 14.1325L18.6433 14.1314L17.7094 12.3198L17.7088 12.3187C17.6961 12.2942 17.6883 12.2674 17.686 12.2399C17.6836 12.2123 17.6867 12.1846 17.6951 12.1583C17.7035 12.132 17.7171 12.1076 17.735 12.0866C17.7528 12.0655 17.7747 12.0482 17.7993 12.0356L17.8004 12.0351L18.7094 11.5665L18.8939 11.4714L18.87 11.2653C18.8527 11.1164 18.84 10.9635 18.8319 10.8064L18.8211 10.5994L18.6236 10.5362L17.4012 10.1454C17.3484 10.1285 17.3044 10.0913 17.2789 10.042C17.2535 9.99267 17.2487 9.93526 17.2656 9.8824L17.8859 7.9421C17.9028 7.88924 17.94 7.84525 17.9893 7.81982C18.0387 7.79439 18.0961 7.7896 18.149 7.8065L19.3713 8.19728L19.5689 8.26042L19.6977 8.09797C19.7954 7.97479 19.8945 7.8576 19.9949 7.74635L20.134 7.59231L20.0389 7.40788L19.5703 6.49887L19.5703 6.49887L19.5697 6.49778C19.557 6.47327 19.5492 6.44649 19.5468 6.41896C19.5445 6.39144 19.5476 6.36372 19.556 6.33741C19.5644 6.31109 19.5779 6.28671 19.5958 6.26565C19.6137 6.2446 19.6356 6.2273 19.6602 6.21474L19.6613 6.21418L21.4729 5.28027L21.4729 5.28027L21.474 5.2797C21.4985 5.26695 21.5253 5.25916 21.5528 5.25681C21.5803 5.25446 21.6081 5.25757 21.6344 5.26599C21.6607 5.2744 21.6851 5.28794 21.7061 5.30582C21.7272 5.3237 21.7445 5.34558 21.757 5.37019L21.7576 5.37128L22.2262 6.28029L22.3213 6.46473L22.5274 6.44083C22.6763 6.42357 22.8292 6.41085 22.9862 6.40271L23.1933 6.39198L23.2565 6.19447L23.6472 4.97208C23.6641 4.91921 23.7013 4.87523 23.7507 4.8498C23.8 4.82437 23.8574 4.81958 23.9103 4.83648L25.8506 5.45676C25.9034 5.47366 25.9474 5.51087 25.9729 5.5602C25.9983 5.60953 26.0031 5.66694 25.9862 5.71981L25.5954 6.9422L25.5323 7.13971L25.6947 7.26858C25.8179 7.36629 25.9351 7.46537 26.0463 7.56579L26.2004 7.70482L26.3848 7.60974L27.2938 7.14114L27.2949 7.14057C27.3194 7.12781 27.3462 7.12003 27.3737 7.11768C27.4012 7.11532 27.429 7.11844 27.4553 7.12685C27.4816 7.13527 27.506 7.1488 27.527 7.16669C27.5481 7.18457 27.5654 7.20645 27.5779 7.23106L27.5785 7.23215L28.5124 9.04377L28.513 9.04486C28.5257 9.06936 28.5335 9.09614 28.5359 9.12367L28.8348 9.0981L28.5359 9.12367C28.5382 9.15119 28.5351 9.17891 28.5267 9.20522C28.5183 9.23154 28.5047 9.25592 28.4869 9.27698L28.7155 9.4712L28.4869 9.27698C28.469 9.29803 28.4471 9.31534 28.4225 9.32789L28.4214 9.32846L27.5124 9.79706L27.3241 9.89414L27.3526 10.1041C27.3724 10.2501 27.3848 10.3992 27.3897 10.5512ZM21.2825 12.1373C21.5704 12.4989 21.959 12.7671 22.3993 12.9078C22.9897 13.0966 23.6308 13.043 24.1818 12.759C24.7327 12.475 25.1482 11.9838 25.337 11.3934C25.4777 10.9531 25.4847 10.481 25.3572 10.0367C25.2296 9.59248 24.9731 9.19601 24.6203 8.89749C24.2674 8.59897 23.8339 8.4118 23.3746 8.35965C22.9153 8.3075 22.4509 8.39271 22.0401 8.6045C21.6292 8.8163 21.2904 9.14516 21.0665 9.54952C20.8425 9.95387 20.7435 10.4155 20.782 10.8762C20.8204 11.3368 20.9946 11.7757 21.2825 12.1373Z" fill="#F2F6FB" stroke="#657181" stroke-width="0.6"/>
<circle cx="23.111" cy="10.6817" r="2.03704" transform="rotate(17.7284 23.111 10.6817)" fill="#F2F6FB"/>
</svg>
