<svg width="32" height="32" viewBox="0 0 32 32" fill="none" xmlns="http://www.w3.org/2000/svg">
<path d="M18.5066 7.5H13.4223C12.6103 7.5 11.953 8.14222 11.953 8.93556V10.1444C11.1024 10.1444 10.2711 10.1444 9.42048 10.1444C8.85984 10.1444 8.85984 10.9944 9.42048 10.9944C9.65246 10.9944 9.88445 10.9944 10.1164 10.9944V23.0644C10.1164 23.8578 10.7737 24.5 11.5857 24.5H20.3432C21.1552 24.5 21.8125 23.8578 21.8125 23.0644V10.9944C22.0445 10.9944 22.2764 10.9944 22.5084 10.9944C23.0691 10.9944 23.0691 10.1444 22.5084 10.1444C21.6578 10.1444 20.8265 10.1444 19.9759 10.1444V8.93556C19.9759 8.14222 19.3186 7.5 18.5066 7.5ZM12.823 8.93556C12.823 8.61444 13.0936 8.35 13.4223 8.35H18.5066C18.8353 8.35 19.1059 8.61444 19.1059 8.93556V10.1444C16.9987 10.1444 14.9108 10.1444 12.8036 10.1444V8.93556H12.823ZM20.9425 23.0644C20.9425 23.3856 20.6719 23.65 20.3432 23.65H11.5857C11.257 23.65 10.9864 23.3856 10.9864 23.0644V10.9944C14.3115 10.9944 17.6367 10.9944 20.9618 10.9944V23.0644H20.9425Z" fill="#657181"/>
<path d="M14.671 20.959C14.671 18.498 14.671 16.0552 14.671 13.5942C14.671 13.0656 13.8428 13.0656 13.8428 13.5942C13.8428 16.0552 13.8428 18.498 13.8428 20.959C13.8428 21.4877 14.671 21.4877 14.671 20.959Z" fill="#657181"/>
<path d="M17.8668 20.959C17.8668 18.498 17.8668 16.0552 17.8668 13.5942C17.8668 13.0656 17.0386 13.0656 17.0386 13.5942C17.0386 16.0552 17.0386 18.498 17.0386 20.959C17.0386 21.4877 17.8668 21.4877 17.8668 20.959Z" fill="#657181"/>
</svg>
