<svg width="32" height="32" viewBox="0 0 32 32" fill="none" xmlns="http://www.w3.org/2000/svg">
  <g clip-path="url(#clip0)">
    <path d="M10 8.5C10 7.39543 10.8954 6.5 12 6.5H25V16.5H10V8.5Z" fill="url(#paint0_linear)"/>
    <path d="M27.0445 16.6749C26.7278 16.201 26.1968 15.9181 25.6238 15.9181H25.086V6.788C25.086 6.62895 24.9562 6.5 24.796 6.5H12.1187C10.6366 6.5 9.43085 7.69883 9.43085 9.17244V11.0862H6.70134C5.76323 11.0862 5 11.8442 5 12.7758V20.3502V23.1389V23.4485C5 23.4967 5.01485 23.54 5.03586 23.5799C5.25223 25.053 6.5291 26.1892 8.07148 26.1892H23.6319C23.7485 26.1892 23.8537 26.1199 23.8991 26.0133L27.1946 18.2676C27.4171 17.7438 27.3609 17.1485 27.0445 16.6749ZM10.0109 11.3742V9.17244C10.0109 8.0165 10.9565 7.076 12.1187 7.076H24.506V15.9181H10.0109V11.3742ZM5.58 12.7758C5.58 12.1617 6.08297 11.6622 6.70134 11.6622H9.43085V15.9181H9.41315C9.29662 15.9181 9.19141 15.9874 9.14595 16.094L7.45843 20.0622H5.58V12.7758ZM26.6604 18.0436L23.4396 25.6132H8.07148C6.69766 25.6132 5.58 24.5032 5.58 23.1389V20.6382H7.65078C7.72953 20.6382 7.80145 20.6046 7.85492 20.5512C7.8552 20.5509 7.8555 20.5507 7.85578 20.5504C7.88106 20.5249 7.9034 20.4964 7.91798 20.4622L7.92044 20.4565C7.92046 20.4564 7.92051 20.4564 7.92051 20.4564L9.60545 16.4941H9.72085H24.796H25.6238C26.0076 16.4941 26.3491 16.676 26.5612 16.9934C26.7729 17.3104 26.809 17.6932 26.6604 18.0436Z" fill="#657181"/>
  </g>
  <defs>
    <linearGradient id="paint0_linear" x1="9.45299" y1="11.5" x2="25.3103" y2="11.5" gradientUnits="userSpaceOnUse">
      <stop stop-color="#5C8EF7"/>
      <stop offset="1" stop-color="#70BEF5"/>
    </linearGradient>
    <clipPath id="clip0">
      <rect width="24" height="21" fill="white" transform="translate(4 5.5)"/>
    </clipPath>
  </defs>
</svg>
