<svg width="32" height="32" viewBox="0 0 32 32" fill="none" xmlns="http://www.w3.org/2000/svg">
  <ellipse cx="15.6504" cy="12.6596" rx="5.89743" ry="5.88252" fill="url(#paint0_linear)"/>
  <path d="M19.7029 17.1755C21.1036 16.0709 21.9994 14.394 21.9994 12.5186C21.9994 9.19989 19.196 6.5 15.75 6.5C12.304 6.5 9.50064 9.19989 9.50064 12.5186C9.50064 14.394 10.3967 16.0712 11.7971 17.1755C8.95375 18.5685 7 21.4127 7 24.6898C7 24.8613 7.14429 25 7.32208 25C7.49987 25 7.64416 24.8613 7.64416 24.6898C7.64416 21.5383 9.59469 18.8189 12.3929 17.5871C13.364 18.1861 14.5138 18.5375 15.75 18.5375C16.9862 18.5375 18.136 18.1858 19.1071 17.5871C21.9053 18.8192 23.8558 21.5383 23.8558 24.6898C23.8558 24.8613 23.9998 25 24.1779 25C24.356 25 24.5 24.8613 24.5 24.6898C24.5 21.4127 22.5466 18.5685 19.7029 17.1755ZM15.75 17.9168C14.8118 17.9168 13.9286 17.691 13.1508 17.2971C12.9099 17.1749 12.6815 17.035 12.4632 16.8817C11.0611 15.8997 10.1448 14.3118 10.1448 12.5183C10.1448 9.54172 12.6593 7.12007 15.75 7.12007C18.841 7.12007 21.3552 9.54172 21.3552 12.5183C21.3552 14.3121 20.4385 15.8997 19.0368 16.8817C18.8182 17.035 18.5898 17.1749 18.3492 17.2971C17.5714 17.6913 16.6882 17.9168 15.75 17.9168Z" fill="#657181"/>
  <defs>
    <linearGradient id="paint0_linear" x1="23.0221" y1="16.0421" x2="8.65078" y2="15.232" gradientUnits="userSpaceOnUse">
      <stop offset="0.00949925" stop-color="#5DB9FF"/>
      <stop offset="0.994653" stop-color="#3980E8"/>
    </linearGradient>
  </defs>
</svg>
