<svg width="32" height="32" viewBox="0 0 32 32" fill="none" xmlns="http://www.w3.org/2000/svg">
<mask id="path-1-inside-1" fill="white">
<path d="M21.3896 6H10.6104C8.06824 6 6 8.06824 6 10.6106V21.3897C6 23.9318 8.06824 26 10.6104 26H21.3896C23.9318 26 26 23.9318 26 21.3897V10.6106C26 8.06824 23.9318 6 21.3896 6ZM25.3939 21.3897C25.3939 23.5977 23.5977 25.3939 21.3896 25.3939H10.6104C8.40234 25.3939 6.60606 23.5977 6.60606 21.3897V10.6106C6.60606 8.40234 8.40234 6.60606 10.6104 6.60606H21.3896C23.5977 6.60606 25.3939 8.40234 25.3939 10.6106V21.3897Z"/>
</mask>
<path d="M21.3896 6H10.6104C8.06824 6 6 8.06824 6 10.6106V21.3897C6 23.9318 8.06824 26 10.6104 26H21.3896C23.9318 26 26 23.9318 26 21.3897V10.6106C26 8.06824 23.9318 6 21.3896 6ZM25.3939 21.3897C25.3939 23.5977 23.5977 25.3939 21.3896 25.3939H10.6104C8.40234 25.3939 6.60606 23.5977 6.60606 21.3897V10.6106C6.60606 8.40234 8.40234 6.60606 10.6104 6.60606H21.3896C23.5977 6.60606 25.3939 8.40234 25.3939 10.6106V21.3897Z" fill="#303030"/>
<path d="M21.3896 26V27V26ZM21.3896 5H10.6104V7H21.3896V5ZM10.6104 5C7.51594 5 5 7.51598 5 10.6106H7C7 8.62051 8.62055 7 10.6104 7V5ZM5 10.6106V21.3897H7V10.6106H5ZM5 21.3897C5 24.4841 7.51598 27 10.6104 27V25C8.62051 25 7 23.3795 7 21.3897H5ZM10.6104 27H21.3896V25H10.6104V27ZM21.3896 27C24.484 27 27 24.4841 27 21.3897H25C25 23.3795 23.3795 25 21.3896 25V27ZM27 21.3897V10.6106H25V21.3897H27ZM27 10.6106C27 7.51598 24.4841 5 21.3896 5V7C23.3795 7 25 8.6205 25 10.6106H27ZM24.3939 21.3897C24.3939 23.0453 23.0454 24.3939 21.3896 24.3939V26.3939C24.1499 26.3939 26.3939 24.15 26.3939 21.3897H24.3939ZM21.3896 24.3939H10.6104V26.3939H21.3896V24.3939ZM10.6104 24.3939C8.9546 24.3939 7.60606 23.0453 7.60606 21.3897H5.60606C5.60606 24.15 7.85008 26.3939 10.6104 26.3939V24.3939ZM7.60606 21.3897V10.6106H5.60606V21.3897H7.60606ZM7.60606 10.6106C7.60606 8.9546 8.95465 7.60606 10.6104 7.60606V5.60606C7.85004 5.60606 5.60606 7.85008 5.60606 10.6106H7.60606ZM10.6104 7.60606H21.3896V5.60606H10.6104V7.60606ZM21.3896 7.60606C23.0453 7.60606 24.3939 8.9546 24.3939 10.6106H26.3939C26.3939 7.85008 24.15 5.60606 21.3896 5.60606V7.60606ZM24.3939 10.6106V21.3897H26.3939V10.6106H24.3939Z" fill="#657181" mask="url(#path-1-inside-1)"/>
<rect x="10.25" y="11.25" width="11.5" height="9.5" stroke="#657181" stroke-width="0.5"/>
<rect x="9.64971" y="10.65" width="0.9" height="0.9" fill="#303030" stroke="#657181" stroke-width="0.9"/>
<rect x="21.4495" y="10.65" width="0.9" height="0.9" fill="#303030" stroke="#657181" stroke-width="0.9"/>
<rect x="9.64971" y="20.45" width="0.9" height="0.9" fill="#303030" stroke="#657181" stroke-width="0.9"/>
<rect x="21.4495" y="20.45" width="0.9" height="0.9" fill="#303030" stroke="#657181" stroke-width="0.9"/>
</svg>
