<svg width="32" height="32" viewBox="0 0 32 32" fill="none" xmlns="http://www.w3.org/2000/svg">
  <path d="M5.2002 8.51224V11.8523H26.7973V11.2975C26.7973 10.2603 25.9565 9.41945 24.9193 9.41945H14.1208L12.2427 6.98658L7.20765 6.6387C6.12208 6.56369 5.2002 7.42408 5.2002 8.51224Z" fill="url(#paint0_linear)"/>
  <path d="M25.459 25.0231C25.3092 25.0231 25.1593 25.0231 25.0095 25.0231C24.6004 25.0231 24.1889 25.0231 23.7798 25.0231C23.1709 25.0231 22.5643 25.0231 21.9554 25.0231C21.2014 25.0231 20.4474 25.0231 19.6934 25.0231C18.8538 25.0231 18.0165 25.0231 17.1769 25.0231C16.3111 25.0231 15.4453 25.0231 14.5795 25.0231C13.747 25.0231 12.9121 25.0231 12.0797 25.0231C11.3399 25.0231 10.6002 25.0231 9.86046 25.0231C9.26582 25.0231 8.67118 25.0231 8.07655 25.0231C7.68884 25.0231 7.30114 25.0231 6.91343 25.0231C6.69223 25.0231 6.45437 25.0445 6.24506 24.9708C5.89779 24.8471 5.6861 24.5093 5.68134 24.1502C5.68134 24.0812 5.68134 24.0122 5.68134 23.9432C5.68134 23.5769 5.68134 23.2083 5.68134 22.842C5.68134 22.2354 5.68134 21.6265 5.68134 21.02C5.68134 20.2517 5.68134 19.4811 5.68134 18.7128C5.68134 17.8636 5.68134 17.0169 5.68134 16.1677C5.68134 15.3115 5.68134 14.4528 5.68134 13.5965C5.68134 12.814 5.68134 12.0291 5.68134 11.2465C5.68134 10.6138 5.68134 9.9835 5.68134 9.3508C5.68134 8.94883 5.68134 8.54923 5.68134 8.14725C5.68134 8.05687 5.68134 7.96886 5.68134 7.87848C5.68134 7.62873 5.76221 7.39563 5.94536 7.21962C6.15467 7.01744 6.41156 6.977 6.68509 6.977C6.94911 6.977 7.21551 6.977 7.47953 6.977C8.30489 6.977 9.13025 6.977 9.9556 6.977C10.2838 6.977 10.6145 6.977 10.9427 6.977C11.0997 6.977 11.2686 6.96035 11.4256 6.98414C11.7871 7.03409 11.9774 7.30762 12.1819 7.57164C12.4293 7.88561 12.6743 8.20196 12.9217 8.51593C13.0763 8.71335 13.2285 8.91315 13.3855 9.10819C13.6424 9.42691 14.0301 9.58628 14.432 9.58866C14.7722 9.58866 15.1123 9.58866 15.4524 9.58866C16.128 9.58866 16.8058 9.58866 17.4814 9.58866C18.3186 9.58866 19.1582 9.58866 19.9955 9.58866C20.8327 9.58866 21.67 9.58866 22.5072 9.58866C23.1685 9.58866 23.8297 9.58866 24.491 9.58866C24.8049 9.58866 25.1213 9.58628 25.4352 9.58866C25.7825 9.59104 26.106 9.78132 26.2487 10.1072C26.3106 10.2499 26.3177 10.3974 26.3177 10.5496C26.3177 10.8897 26.3177 11.2322 26.3177 11.5724C26.3177 12.2003 26.3177 12.8259 26.3177 13.4538C26.3177 14.2554 26.3177 15.0546 26.3177 15.8561C26.3177 16.7196 26.3177 17.583 26.3177 18.4464C26.3177 19.2575 26.3177 20.0686 26.3177 20.8797C26.3177 21.5338 26.3177 22.1902 26.3177 22.8443C26.3177 23.2297 26.3177 23.6126 26.3177 23.9979C26.3177 24.0526 26.3177 24.1097 26.3177 24.1644C26.3153 24.6354 25.9347 25.016 25.459 25.0231C25.1522 25.0279 25.1522 25.5036 25.459 25.4988C26.1131 25.4893 26.6887 25.0112 26.7815 24.3547C26.7958 24.2453 26.7982 24.1407 26.7982 24.0312C26.7982 23.6626 26.7982 23.2939 26.7982 22.9276C26.7982 22.2735 26.7982 21.6218 26.7982 20.9677C26.7982 20.1494 26.7982 19.3312 26.7982 18.513C26.7982 17.6424 26.7982 16.7719 26.7982 15.899C26.7982 15.0903 26.7982 14.2792 26.7982 13.4705C26.7982 12.8378 26.7982 12.2027 26.7982 11.57C26.7982 11.2275 26.7982 10.8826 26.7982 10.5401C26.7982 10.3498 26.7815 10.1595 26.7125 9.97874C26.508 9.45784 26.018 9.1177 25.4566 9.11057C25.176 9.10819 24.8929 9.11057 24.6123 9.11057C23.9653 9.11057 23.3159 9.11057 22.669 9.11057C21.827 9.11057 20.985 9.11057 20.143 9.11057C19.2891 9.11057 18.4375 9.11057 17.5836 9.11057C16.8915 9.11057 16.1993 9.11057 15.5072 9.11057C15.1527 9.11057 14.7983 9.11057 14.4416 9.11057C14.149 9.11057 13.904 8.9964 13.7185 8.76568C13.5425 8.54447 13.3712 8.32089 13.1952 8.0973C12.9526 7.78809 12.7123 7.47888 12.4697 7.16967C12.4198 7.10782 12.3722 7.0436 12.3223 6.98176C12.1034 6.7106 11.7847 6.54886 11.4398 6.51081C11.2733 6.49178 11.1021 6.50367 10.9356 6.50367C10.6026 6.50367 10.2672 6.50367 9.9342 6.50367C9.10408 6.50367 8.27397 6.50367 7.44147 6.50367C7.18221 6.50367 6.92057 6.50367 6.66131 6.50367C6.29739 6.50367 5.96439 6.58692 5.67896 6.8224C5.37213 7.0769 5.21039 7.46699 5.20801 7.86183C5.20801 7.94032 5.20801 8.02119 5.20801 8.09968C5.20801 8.48739 5.20801 8.87747 5.20801 9.26517C5.20801 9.89311 5.20801 10.521 5.20801 11.1466C5.20801 11.9315 5.20801 12.7188 5.20801 13.5038C5.20801 14.3672 5.20801 15.2306 5.20801 16.094C5.20801 16.955 5.20801 17.8161 5.20801 18.6747C5.20801 19.4525 5.20801 20.2279 5.20801 21.0057C5.20801 21.6194 5.20801 22.2307 5.20801 22.8443C5.20801 23.213 5.20801 23.5817 5.20801 23.948C5.20801 24.0146 5.20801 24.0836 5.20801 24.1502C5.21276 24.6378 5.47203 25.1016 5.9073 25.3347C6.21652 25.5012 6.53048 25.4964 6.86348 25.4964C7.23929 25.4964 7.61511 25.4964 7.99092 25.4964C8.5808 25.4964 9.17068 25.4964 9.76056 25.4964C10.5051 25.4964 11.2495 25.4964 11.994 25.4964C12.8337 25.4964 13.6709 25.4964 14.5105 25.4964C15.3835 25.4964 16.2564 25.4964 17.1293 25.4964C17.9761 25.4964 18.8252 25.4964 19.672 25.4964C20.4331 25.4964 21.1943 25.4964 21.9554 25.4964C22.5738 25.4964 23.1899 25.4964 23.8083 25.4964C24.2174 25.4964 24.6242 25.4964 25.0333 25.4964C25.176 25.4964 25.3163 25.4964 25.459 25.4964C25.7635 25.4988 25.7659 25.0231 25.459 25.0231Z" fill="#657181"/>
  <path d="M25.4574 25.0208C25.0031 25.0208 24.5488 25.0208 24.0945 25.0208C22.9623 25.0208 21.8277 25.0208 20.6955 25.0208C19.2066 25.0208 17.7176 25.0208 16.2286 25.0208C14.7301 25.0208 13.2316 25.0208 11.7331 25.0208C10.5439 25.0208 9.35458 25.0208 8.16768 25.0208C7.63251 25.0208 7.09733 25.0232 6.56216 25.0208C6.291 25.0185 6.03412 24.9067 5.86524 24.6878C5.73204 24.5166 5.68447 24.3144 5.68447 24.1027C5.68447 23.803 5.68447 23.5057 5.68447 23.206C5.68447 21.9097 5.68447 20.611 5.68447 19.3147C5.68447 17.8519 5.68447 16.3891 5.68447 14.9239C5.68447 14.4315 5.68447 13.9368 5.68447 13.4444C5.68447 13.2375 5.67496 13.0258 5.68685 12.8165C5.71301 12.3669 6.10785 12.0268 6.54788 12.0197C6.58118 12.0197 6.61448 12.0197 6.64778 12.0197C6.88564 12.0197 7.12112 12.0197 7.35897 12.0197C8.35797 12.0197 9.35934 12.0197 10.3583 12.0197C11.7855 12.0197 13.2126 12.0197 14.6421 12.0197C16.1739 12.0197 17.7081 12.0197 19.2399 12.0197C20.529 12.0197 21.8206 12.0197 23.1098 12.0197C23.8376 12.0197 24.5631 12.0197 25.2909 12.0197C25.3432 12.0197 25.3979 12.0197 25.4503 12.0197C25.7404 12.022 26.0187 12.1552 26.1805 12.4026C26.3541 12.669 26.3256 12.9663 26.3256 13.2684C26.3256 14.3911 26.3256 15.5138 26.3256 16.6364C26.3256 18.1397 26.3256 19.6429 26.3256 21.1462C26.3256 22.1047 26.3256 23.0657 26.3256 24.0242C26.3256 24.0884 26.3279 24.155 26.3232 24.2193C26.2899 24.6736 25.8974 25.0137 25.4574 25.0208C25.1506 25.0256 25.1506 25.5013 25.4574 25.4966C26.0449 25.487 26.5706 25.1065 26.7394 24.5404C26.787 24.3858 26.7941 24.2264 26.7941 24.067C26.7941 23.734 26.7941 23.3987 26.7941 23.0657C26.7941 21.7147 26.7941 20.3613 26.7941 19.0102C26.7941 17.5569 26.7941 16.106 26.7941 14.6527C26.7941 14.1937 26.7941 13.7322 26.7941 13.2732C26.7941 12.9069 26.8084 12.5548 26.6158 12.2195C26.3779 11.8032 25.9284 11.5535 25.4526 11.5487C25.4098 11.5487 25.367 11.5487 25.3266 11.5487C25.0721 11.5487 24.8199 11.5487 24.5654 11.5487C23.526 11.5487 22.4866 11.5487 21.4495 11.5487C19.9843 11.5487 18.5215 11.5487 17.0563 11.5487C15.515 11.5487 13.9714 11.5487 12.4301 11.5487C11.1551 11.5487 9.88262 11.5487 8.60771 11.5487C7.94885 11.5487 7.28762 11.5487 6.62876 11.5487C6.57881 11.5487 6.52648 11.5487 6.47653 11.5511C5.90567 11.5844 5.40142 11.9792 5.25157 12.5358C5.18022 12.8022 5.204 13.0995 5.204 13.3731C5.204 14.5528 5.204 15.735 5.204 16.9147C5.204 18.4322 5.204 19.9498 5.204 21.4673C5.204 22.3473 5.204 23.2274 5.204 24.1099C5.204 24.3715 5.25871 24.6284 5.39666 24.8543C5.64166 25.2563 6.07693 25.4942 6.54551 25.4989C6.69298 25.5013 6.84045 25.4989 6.98554 25.4989C7.86798 25.4989 8.75281 25.4989 9.63525 25.4989C11.0291 25.4989 12.4229 25.4989 13.8144 25.4989C15.3699 25.4989 16.9231 25.4989 18.4787 25.4989C19.8488 25.4989 21.2188 25.4989 22.5912 25.4989C23.4309 25.4989 24.2729 25.4989 25.1125 25.4989C25.2267 25.4989 25.3385 25.4989 25.4526 25.4989C25.7619 25.4966 25.7642 25.0208 25.4574 25.0208Z" fill="#657181"/>
  <path d="M13.569 21.1759C12.865 20.3529 12.1609 19.5323 11.4569 18.7093C11.357 18.5928 11.2547 18.4739 11.1548 18.3573C11.1548 18.4691 11.1548 18.5809 11.1548 18.6927C11.8589 17.8697 12.5629 17.0491 13.267 16.2261C13.3669 16.1096 13.4691 15.9906 13.569 15.8741C13.6523 15.7766 13.6642 15.6339 13.569 15.5387C13.4834 15.4531 13.3169 15.4412 13.2337 15.5387C12.5296 16.3617 11.8256 17.1823 11.1215 18.0053C11.0216 18.1218 10.9193 18.2408 10.8194 18.3573C10.7314 18.4596 10.7314 18.5904 10.8194 18.6927C11.5235 19.5157 12.2275 20.3363 12.9316 21.1592C13.0315 21.2758 13.1338 21.3947 13.2337 21.5113C13.3169 21.6088 13.4834 21.5969 13.569 21.5113C13.6666 21.4138 13.6547 21.2734 13.569 21.1759Z" fill="#657181"/>
  <path d="M18.7661 21.5113C19.4701 20.6883 20.1742 19.8677 20.8782 19.0447C20.9781 18.9282 21.0804 18.8092 21.1803 18.6927C21.2683 18.5904 21.2683 18.4596 21.1803 18.3573C20.4762 17.5343 19.7722 16.7137 19.0681 15.8907C18.9682 15.7742 18.866 15.6553 18.7661 15.5387C18.6828 15.4412 18.5163 15.4531 18.4307 15.5387C18.3332 15.6362 18.3474 15.7766 18.4307 15.8741C19.1347 16.6971 19.8388 17.5177 20.5428 18.3407C20.6427 18.4572 20.745 18.5761 20.8449 18.6927C20.8449 18.5809 20.8449 18.4691 20.8449 18.3573C20.1409 19.1803 19.4368 20.0009 18.7328 20.8239C18.6329 20.9404 18.5306 21.0593 18.4307 21.1759C18.3474 21.2734 18.3355 21.4161 18.4307 21.5113C18.5163 21.5969 18.6828 21.6088 18.7661 21.5113Z" fill="#657181"/>
  <path d="M16.8782 15.1072C16.6285 15.8636 16.3787 16.6176 16.1314 17.374C15.7318 18.5751 15.3345 19.7811 14.9373 20.9846C14.8469 21.2605 14.7542 21.5364 14.6638 21.8147C14.5686 22.1073 15.0277 22.231 15.1228 21.9408C15.3726 21.1844 15.6223 20.4304 15.8697 19.674C16.2669 18.4705 16.6641 17.2669 17.0614 16.0634C17.1518 15.7875 17.2445 15.5116 17.3349 15.2333C17.4324 14.9431 16.9734 14.817 16.8782 15.1072Z" fill="#657181"/>
  <defs>
    <linearGradient id="paint0_linear" x1="3.64644" y1="9.41946" x2="26.7973" y2="9.41946" gradientUnits="userSpaceOnUse">
      <stop stop-color="#5C8EF7"/>
      <stop offset="1" stop-color="#70BEF5"/>
    </linearGradient>
  </defs>
</svg>
