<svg width="32" height="32" viewBox="0 0 32 32" fill="none" xmlns="http://www.w3.org/2000/svg">
  <path d="M8.7335 21.625C8.7335 21.625 8.21045 21.4121 8.21045 21.149V9.72596C8.21045 9.46288 8.44465 9.25 8.7335 9.25H25.3716C25.6605 9.25 25.8947 9.72596 25.8947 9.72596" stroke="#657181" stroke-width="0.5"/>
  <path d="M6.52305 19.375C6.52305 19.375 6 19.1621 6 18.899V7.47596C6 7.21288 6.2342 7 6.52305 7H23.1612C23.45 7 23.6842 7.47596 23.6842 7.47596" stroke="#657181" stroke-width="0.5"/>
  <path d="M10.9113 11.7H26.5095C26.6581 11.7 26.7998 11.8332 26.7998 12.0192V24.4808C26.7998 24.6707 26.6594 24.8 26.5095 24.8H10.9113C10.7614 24.8 10.6209 24.6707 10.6209 24.4808V12.0192C10.6209 11.8332 10.7626 11.7 10.9113 11.7Z" fill="url(#paint0_linear)" stroke="#657181" stroke-width="0.4"/>
  <defs>
    <linearGradient id="paint0_linear" x1="29.0722" y1="22.1312" x2="8.90368" y2="20.7386" gradientUnits="userSpaceOnUse">
      <stop offset="0.00949925" stop-color="#5DB9FF"/>
      <stop offset="0.994653" stop-color="#3980E8"/>
    </linearGradient>
  </defs>
</svg>
