<svg width="32" height="32" viewBox="0 0 32 32" fill="none" xmlns="http://www.w3.org/2000/svg">
<path d="M5.19922 10.8999V15.8438L10.5 18.5L15.8719 18.9884C15.957 18.9961 16.0426 18.9929 16.1269 18.9789L22 18L26.1992 15.8438V10.8999L25.6992 10.3999H5.69922L5.19922 10.8999Z" fill="url(#paint0_linear)"/>
<path d="M25.2572 24.7746C24.8029 24.7746 24.3486 24.7746 23.8943 24.7746C22.7621 24.7746 21.6275 24.7746 20.4953 24.7746C19.0064 24.7746 17.5174 24.7746 16.0284 24.7746C14.5299 24.7746 13.0314 24.7746 11.5329 24.7746C10.3437 24.7746 9.15438 24.7746 7.96749 24.7746C7.43231 24.7746 6.89714 24.7772 6.36196 24.7746C6.09081 24.772 5.83392 24.6494 5.66504 24.4094C5.53185 24.2216 5.48427 23.9999 5.48427 23.7677C5.48427 23.4391 5.48427 23.113 5.48427 22.7843C5.48427 21.3627 5.48427 19.9384 5.48427 18.5168C5.48427 16.9126 5.48427 15.3083 5.48427 13.7015C5.48427 13.1615 5.48427 12.6189 5.48427 12.079C5.48427 11.852 5.47476 11.6199 5.48665 11.3903C5.51282 10.8973 5.90766 10.5243 6.34769 10.5165C6.38099 10.5165 6.41429 10.5165 6.44759 10.5165C6.68544 10.5165 6.92092 10.5165 7.15878 10.5165C8.15777 10.5165 9.15914 10.5165 10.1581 10.5165C11.5853 10.5165 13.0124 10.5165 14.4419 10.5165C15.9737 10.5165 17.5079 10.5165 19.0397 10.5165C20.3288 10.5165 21.6204 10.5165 22.9096 10.5165C23.6374 10.5165 24.3629 10.5165 25.0907 10.5165C25.143 10.5165 25.1977 10.5165 25.2501 10.5165C25.5403 10.5191 25.8185 10.6652 25.9803 10.9365C26.1539 11.2286 26.1254 11.5547 26.1254 11.886C26.1254 13.1172 26.1254 14.3484 26.1254 15.5796C26.1254 17.2282 26.1254 18.8768 26.1254 20.5254C26.1254 21.5766 26.1254 22.6304 26.1254 23.6817C26.1254 23.7521 26.1278 23.8251 26.123 23.8956C26.0897 24.3938 25.6972 24.7668 25.2572 24.7746C24.9504 24.7798 24.9504 25.3015 25.2572 25.2963C25.8447 25.2859 26.3704 24.8685 26.5392 24.2477C26.5868 24.0782 26.594 23.9034 26.594 23.7286C26.594 23.3634 26.594 22.9956 26.594 22.6304C26.594 21.1488 26.594 19.6645 26.594 18.1829C26.594 16.5891 26.594 14.9979 26.594 13.4041C26.594 12.9007 26.594 12.3946 26.594 11.8912C26.594 11.4895 26.6082 11.1034 26.4156 10.7356C26.1777 10.2791 25.7282 10.0052 25.2524 10C25.2096 10 25.1668 10 25.1264 10C24.8719 10 24.6197 10 24.3652 10C23.3258 10 22.2864 10 21.2493 10C19.7841 10 18.3213 10 16.8561 10C15.3148 10 13.7712 10 12.2299 10C10.955 10 9.68242 10 8.40752 10C7.74866 10 7.08742 10 6.42856 10C6.37861 10 6.32628 10 6.27633 10.0026C5.70548 10.0391 5.20123 10.4721 5.05138 11.0825C4.98002 11.3747 5.00381 11.7008 5.00381 12.0007C5.00381 13.2946 5.00381 14.591 5.00381 15.8848C5.00381 17.549 5.00381 19.2133 5.00381 20.8775C5.00381 21.8427 5.00381 22.8078 5.00381 23.7756C5.00381 24.0625 5.05851 24.3442 5.19647 24.592C5.44146 25.0329 5.87674 25.2937 6.34531 25.2989C6.49278 25.3015 6.64025 25.2989 6.78534 25.2989C7.66779 25.2989 8.55261 25.2989 9.43505 25.2989C10.8289 25.2989 12.2227 25.2989 13.6142 25.2989C15.1698 25.2989 16.7229 25.2989 18.2785 25.2989C19.6486 25.2989 21.0186 25.2989 22.391 25.2989C23.2307 25.2989 24.0727 25.2989 24.9123 25.2989C25.0265 25.2989 25.1383 25.2989 25.2524 25.2989C25.5617 25.2963 25.564 24.7746 25.2572 24.7746Z" fill="#657181"/>
<path d="M11 10V8C11 7.46957 11.2634 6.96086 11.7322 6.58579C12.2011 6.21071 12.837 6 13.5 6H18.5C19.163 6 19.7989 6.21071 20.2678 6.58579C20.7366 6.96086 21 7.46957 21 8V10" stroke="#657181" stroke-width="0.6" stroke-linecap="round" stroke-linejoin="round"/>
<path d="M5.30078 16C8.55763 17.9725 12.1538 19 15.8008 19C19.4477 19 23.0439 17.9725 26.3008 16" stroke="#657181" stroke-width="0.5" stroke-linecap="round" stroke-linejoin="round"/>
<circle cx="16" cy="16.5" r="0.5" fill="#657181"/>
<defs>
<linearGradient id="paint0_linear" x1="28.8242" y1="17.1725" x2="3.6305" y2="13.7135" gradientUnits="userSpaceOnUse">
<stop offset="0.00949925" stop-color="#5DB9FF"/>
<stop offset="0.994653" stop-color="#3980E8"/>
</linearGradient>
</defs>
</svg>
