<svg width="32" height="32" viewBox="0 0 32 32" fill="none" xmlns="http://www.w3.org/2000/svg">
<path d="M5.19922 8.51224V11.8523H26.7964V11.2975C26.7964 10.2603 25.9555 9.41945 24.9183 9.41945H14.1198L12.2418 6.98658L7.20668 6.6387C6.12111 6.56369 5.19922 7.42408 5.19922 8.51224Z" fill="url(#paint0_linear)"/>
<path d="M25.4581 25.0231C25.3082 25.0231 25.1584 25.0231 25.0085 25.0231C24.5994 25.0231 24.1879 25.0231 23.7788 25.0231C23.1699 25.0231 22.5633 25.0231 21.9544 25.0231C21.2004 25.0231 20.4464 25.0231 19.6924 25.0231C18.8528 25.0231 18.0156 25.0231 17.1759 25.0231C16.3101 25.0231 15.4443 25.0231 14.5785 25.0231C13.746 25.0231 12.9112 25.0231 12.0787 25.0231C11.3389 25.0231 10.5992 25.0231 9.85949 25.0231C9.26485 25.0231 8.67021 25.0231 8.07557 25.0231C7.68786 25.0231 7.30016 25.0231 6.91246 25.0231C6.69125 25.0231 6.45339 25.0445 6.24408 24.9708C5.89681 24.8471 5.68512 24.5093 5.68036 24.1502C5.68036 24.0812 5.68036 24.0122 5.68036 23.9432C5.68036 23.5769 5.68036 23.2083 5.68036 22.842C5.68036 22.2354 5.68036 21.6265 5.68036 21.02C5.68036 20.2517 5.68036 19.4811 5.68036 18.7128C5.68036 17.8636 5.68036 17.0169 5.68036 16.1677C5.68036 15.3115 5.68036 14.4528 5.68036 13.5965C5.68036 12.814 5.68036 12.0291 5.68036 11.2465C5.68036 10.6138 5.68036 9.9835 5.68036 9.3508C5.68036 8.94883 5.68036 8.54923 5.68036 8.14725C5.68036 8.05687 5.68036 7.96886 5.68036 7.87848C5.68036 7.62873 5.76123 7.39563 5.94438 7.21962C6.1537 7.01744 6.41058 6.977 6.68411 6.977C6.94813 6.977 7.21453 6.977 7.47855 6.977C8.30391 6.977 9.12927 6.977 9.95463 6.977C10.2829 6.977 10.6135 6.977 10.9417 6.977C11.0987 6.977 11.2676 6.96035 11.4246 6.98414C11.7861 7.03409 11.9764 7.30762 12.181 7.57164C12.4283 7.88561 12.6733 8.20196 12.9207 8.51593C13.0753 8.71335 13.2275 8.91315 13.3845 9.10819C13.6414 9.42691 14.0291 9.58628 14.4311 9.58866C14.7712 9.58866 15.1113 9.58866 15.4515 9.58866C16.127 9.58866 16.8049 9.58866 17.4804 9.58866C18.3176 9.58866 19.1573 9.58866 19.9945 9.58866C20.8318 9.58866 21.669 9.58866 22.5063 9.58866C23.1675 9.58866 23.8287 9.58866 24.49 9.58866C24.8039 9.58866 25.1203 9.58628 25.4343 9.58866C25.7815 9.59104 26.105 9.78132 26.2477 10.1072C26.3096 10.2499 26.3167 10.3974 26.3167 10.5496C26.3167 10.8897 26.3167 11.2322 26.3167 11.5724C26.3167 12.2003 26.3167 12.8259 26.3167 13.4538C26.3167 14.2554 26.3167 15.0546 26.3167 15.8561C26.3167 16.7196 26.3167 17.583 26.3167 18.4464C26.3167 19.2575 26.3167 20.0686 26.3167 20.8797C26.3167 21.5338 26.3167 22.1902 26.3167 22.8443C26.3167 23.2297 26.3167 23.6126 26.3167 23.9979C26.3167 24.0526 26.3167 24.1097 26.3167 24.1644C26.3143 24.6354 25.9338 25.016 25.4581 25.0231C25.1512 25.0279 25.1512 25.5036 25.4581 25.4988C26.1122 25.4893 26.6878 25.0112 26.7805 24.3547C26.7948 24.2453 26.7972 24.1407 26.7972 24.0312C26.7972 23.6626 26.7972 23.2939 26.7972 22.9276C26.7972 22.2735 26.7972 21.6218 26.7972 20.9677C26.7972 20.1494 26.7972 19.3312 26.7972 18.513C26.7972 17.6424 26.7972 16.7719 26.7972 15.899C26.7972 15.0903 26.7972 14.2792 26.7972 13.4705C26.7972 12.8378 26.7972 12.2027 26.7972 11.57C26.7972 11.2275 26.7972 10.8826 26.7972 10.5401C26.7972 10.3498 26.7805 10.1595 26.7115 9.97874C26.507 9.45784 26.017 9.1177 25.4557 9.11057C25.175 9.10819 24.892 9.11057 24.6113 9.11057C23.9643 9.11057 23.315 9.11057 22.668 9.11057C21.826 9.11057 20.984 9.11057 20.142 9.11057C19.2881 9.11057 18.4366 9.11057 17.5827 9.11057C16.8905 9.11057 16.1983 9.11057 15.5062 9.11057C15.1518 9.11057 14.7974 9.11057 14.4406 9.11057C14.148 9.11057 13.903 8.9964 13.7175 8.76568C13.5415 8.54447 13.3702 8.32089 13.1942 8.0973C12.9516 7.78809 12.7114 7.47888 12.4688 7.16967C12.4188 7.10782 12.3712 7.0436 12.3213 6.98176C12.1025 6.7106 11.7837 6.54886 11.4388 6.51081C11.2723 6.49178 11.1011 6.50367 10.9346 6.50367C10.6016 6.50367 10.2662 6.50367 9.93322 6.50367C9.1031 6.50367 8.27299 6.50367 7.4405 6.50367C7.18123 6.50367 6.91959 6.50367 6.66033 6.50367C6.29641 6.50367 5.96341 6.58692 5.67799 6.8224C5.37115 7.0769 5.20941 7.46699 5.20703 7.86183C5.20703 7.94032 5.20703 8.02119 5.20703 8.09968C5.20703 8.48739 5.20703 8.87747 5.20703 9.26517C5.20703 9.89311 5.20703 10.521 5.20703 11.1466C5.20703 11.9315 5.20703 12.7188 5.20703 13.5038C5.20703 14.3672 5.20703 15.2306 5.20703 16.094C5.20703 16.955 5.20703 17.8161 5.20703 18.6747C5.20703 19.4525 5.20703 20.2279 5.20703 21.0057C5.20703 21.6194 5.20703 22.2307 5.20703 22.8443C5.20703 23.213 5.20703 23.5817 5.20703 23.948C5.20703 24.0146 5.20703 24.0836 5.20703 24.1502C5.21179 24.6378 5.47105 25.1016 5.90633 25.3347C6.21554 25.5012 6.52951 25.4964 6.86251 25.4964C7.23832 25.4964 7.61413 25.4964 7.98994 25.4964C8.57982 25.4964 9.1697 25.4964 9.75959 25.4964C10.5041 25.4964 11.2486 25.4964 11.993 25.4964C12.8327 25.4964 13.6699 25.4964 14.5096 25.4964C15.3825 25.4964 16.2554 25.4964 17.1284 25.4964C17.9751 25.4964 18.8243 25.4964 19.671 25.4964C20.4322 25.4964 21.1933 25.4964 21.9544 25.4964C22.5729 25.4964 23.1889 25.4964 23.8073 25.4964C24.2164 25.4964 24.6232 25.4964 25.0323 25.4964C25.175 25.4964 25.3153 25.4964 25.4581 25.4964C25.7625 25.4988 25.7649 25.0231 25.4581 25.0231Z" fill="#657181"/>
<path d="M25.4564 25.021C25.0021 25.021 24.5478 25.021 24.0935 25.021C22.9613 25.021 21.8267 25.021 20.6946 25.021C19.2056 25.021 17.7166 25.021 16.2276 25.021C14.7291 25.021 13.2306 25.021 11.7322 25.021C10.5429 25.021 9.3536 25.021 8.1667 25.021C7.63153 25.021 7.09635 25.0233 6.56118 25.021C6.29002 25.0186 6.03314 24.9068 5.86426 24.688C5.73106 24.5167 5.68349 24.3145 5.68349 24.1028C5.68349 23.8031 5.68349 23.5058 5.68349 23.2061C5.68349 21.9098 5.68349 20.6111 5.68349 19.3148C5.68349 17.852 5.68349 16.3892 5.68349 14.924C5.68349 14.4316 5.68349 13.9369 5.68349 13.4445C5.68349 13.2376 5.67398 13.0259 5.68587 12.8166C5.71204 12.3671 6.10688 12.0269 6.54691 12.0198C6.58021 12.0198 6.61351 12.0198 6.64681 12.0198C6.88466 12.0198 7.12014 12.0198 7.358 12.0198C8.35699 12.0198 9.35836 12.0198 10.3574 12.0198C11.7845 12.0198 13.2116 12.0198 14.6411 12.0198C16.1729 12.0198 17.7071 12.0198 19.2389 12.0198C20.5281 12.0198 21.8196 12.0198 23.1088 12.0198C23.8366 12.0198 24.5621 12.0198 25.2899 12.0198C25.3423 12.0198 25.397 12.0198 25.4493 12.0198C25.7395 12.0222 26.0178 12.1554 26.1795 12.4027C26.3531 12.6691 26.3246 12.9664 26.3246 13.2685C26.3246 14.3912 26.3246 15.5139 26.3246 16.6366C26.3246 18.1398 26.3246 19.6431 26.3246 21.1463C26.3246 22.1049 26.3246 23.0658 26.3246 24.0243C26.3246 24.0886 26.327 24.1552 26.3222 24.2194C26.2889 24.6737 25.8965 25.0138 25.4564 25.021C25.1496 25.0257 25.1496 25.5014 25.4564 25.4967C26.0439 25.4872 26.5696 25.1066 26.7385 24.5405C26.786 24.3859 26.7932 24.2265 26.7932 24.0672C26.7932 23.7342 26.7932 23.3988 26.7932 23.0658C26.7932 21.7148 26.7932 20.3614 26.7932 19.0104C26.7932 17.5571 26.7932 16.1061 26.7932 14.6528C26.7932 14.1938 26.7932 13.7323 26.7932 13.2733C26.7932 12.907 26.8074 12.555 26.6148 12.2196C26.3769 11.8033 25.9274 11.5536 25.4517 11.5488C25.4089 11.5488 25.366 11.5488 25.3256 11.5488C25.0711 11.5488 24.819 11.5488 24.5645 11.5488C23.525 11.5488 22.4856 11.5488 21.4486 11.5488C19.9834 11.5488 18.5206 11.5488 17.0554 11.5488C15.5141 11.5488 13.9704 11.5488 12.4291 11.5488C11.1542 11.5488 9.88164 11.5488 8.60674 11.5488C7.94788 11.5488 7.28664 11.5488 6.62778 11.5488C6.57783 11.5488 6.5255 11.5488 6.47555 11.5512C5.9047 11.5845 5.40044 11.9793 5.2506 12.5359C5.17924 12.8023 5.20302 13.0996 5.20302 13.3732C5.20302 14.5529 5.20302 15.7351 5.20302 16.9148C5.20302 18.4324 5.20302 19.9499 5.20302 21.4674C5.20302 22.3475 5.20302 23.2275 5.20302 24.11C5.20302 24.3716 5.25773 24.6285 5.39569 24.8545C5.64068 25.2564 6.07595 25.4943 6.54453 25.4991C6.692 25.5014 6.83947 25.4991 6.98456 25.4991C7.86701 25.4991 8.75183 25.4991 9.63427 25.4991C11.0281 25.4991 12.4219 25.4991 13.8134 25.4991C15.369 25.4991 16.9222 25.4991 18.4777 25.4991C19.8478 25.4991 21.2178 25.4991 22.5903 25.4991C23.4299 25.4991 24.2719 25.4991 25.1115 25.4991C25.2257 25.4991 25.3375 25.4991 25.4517 25.4991C25.7609 25.4967 25.7633 25.021 25.4564 25.021Z" fill="#657181"/>
<path d="M17.5927 21.5113C18.2968 20.6883 19.0008 19.8677 19.7049 19.0447C19.8048 18.9282 19.9071 18.8092 20.007 18.6927C20.095 18.5904 20.095 18.4596 20.007 18.3573C19.3029 17.5343 18.5989 16.7137 17.8948 15.8907C17.7949 15.7742 17.6926 15.6553 17.5927 15.5387C17.5095 15.4412 17.343 15.4531 17.2573 15.5387C17.1598 15.6362 17.1741 15.7766 17.2573 15.8741C17.9614 16.6971 18.6655 17.5177 19.3695 18.3407C19.4694 18.4572 19.5717 18.5761 19.6716 18.6927C19.6716 18.5809 19.6716 18.4691 19.6716 18.3573C18.9675 19.1803 18.2635 20.0009 17.5594 20.8239C17.4595 20.9404 17.3572 21.0593 17.2573 21.1759C17.1741 21.2734 17.1622 21.4161 17.2573 21.5113C17.343 21.5969 17.5095 21.6088 17.5927 21.5113Z" fill="#657181"/>
<path d="M19.3435 18.2641C18.547 18.2693 17.7527 18.2739 16.957 18.2814C15.6911 18.2869 14.4215 18.2963 13.1541 18.3048C12.8637 18.3074 12.5727 18.3078 12.2801 18.3112C11.9725 18.3146 12.0021 18.7891 12.3075 18.7864C13.104 18.7811 13.8983 18.7766 14.694 18.7691C15.9614 18.7605 17.2288 18.752 18.4962 18.7434C18.7865 18.7408 19.0776 18.7404 19.3701 18.7371C19.6763 18.7367 19.6489 18.2614 19.3435 18.2641Z" fill="#657181"/>
<defs>
<linearGradient id="paint0_linear" x1="3.64547" y1="9.41946" x2="26.7964" y2="9.41946" gradientUnits="userSpaceOnUse">
<stop stop-color="#5C8EF7"/>
<stop offset="1" stop-color="#70BEF5"/>
</linearGradient>
</defs>
</svg>
