<svg xmlns="http://www.w3.org/2000/svg" version="1.1" xmlns:xlink="http://www.w3.org/1999/xlink" xmlns:svgjs="http://svgjs.dev/svgjs" width="1000" height="1125" viewBox="0 0 1000 1125"><g transform="matrix(1,0,0,1,0,0)"><svg viewBox="0 0 320 360" data-background-color="#90adbb" preserveAspectRatio="xMidYMid meet" height="1125" width="1000" xmlns="http://www.w3.org/2000/svg" xmlns:xlink="http://www.w3.org/1999/xlink"><g id="tight-bounds" transform="matrix(1,0,0,1,0,0)"><svg viewBox="0 0 320 360" height="360" width="320"><g><svg></svg></g><g><svg viewBox="0 0 320 360" height="360" width="320"><g><path xmlns="http://www.w3.org/2000/svg" d="M160 42.18c72.417 0 131.943 56.114 137.63 127.014h22.37c-1.137-17.82-5.308-34.882-12.133-51.185-7.962-18.957-19.716-36.398-34.502-50.805-14.787-14.787-31.848-26.161-50.806-34.503-20.095-8.341-40.948-12.891-62.559-12.891-21.611 0-42.464 4.171-62.559 12.512-18.957 7.962-36.398 19.716-50.806 34.503-14.787 14.787-26.161 31.848-34.502 50.805-6.825 16.303-10.995 33.744-12.133 51.185h22.37c5.687-70.521 65.213-126.635 137.63-126.635zM160 318.199c-72.417 0-131.943-56.114-137.63-127.014h-22.37c1.137 17.82 5.308 34.882 12.133 51.185 7.962 18.957 19.716 36.398 34.502 50.805 14.787 14.787 31.848 26.161 50.806 34.503 19.716 8.341 40.569 12.512 62.559 12.512 21.991 0 42.464-4.171 62.559-12.512 18.957-7.962 36.398-19.716 50.806-34.503 14.787-14.787 26.161-31.848 34.502-50.805 6.825-16.303 10.995-33.744 12.133-51.185h-22.37c-5.687 70.9-65.213 127.014-137.63 127.014z" fill="#000000" fill-rule="nonzero" stroke="none" stroke-width="1" stroke-linecap="butt" stroke-linejoin="miter" stroke-miterlimit="10" stroke-dasharray="" stroke-dashoffset="0" font-family="none" font-weight="none" font-size="none" text-anchor="none" style="mix-blend-mode: normal" data-fill-palette-color="tertiary"></path></g><g transform="matrix(1,0,0,1,56,97.6888826753024)"><svg viewBox="0 0 208 164.6222346493952" height="164.6222346493952" width="208"><g><svg viewBox="0 0 209.03999999999996 165.44534582264217" height="164.6222346493952" width="208"><g><rect width="209.03999999999996" height="3.3003030557773365" x="0" y="92.68855837448777" fill="#000000" opacity="1" stroke-width="0" stroke="transparent" fill-opacity="1" class="rect-o-0" data-fill-palette-color="secondary" rx="1%" id="o-0" data-palette-color="#f6f6f6"></rect></g><g transform="matrix(1,0,0,1,0.5199999999999818,104.62839822549373)"><svg viewBox="0 0 208 60.81694759714844" height="60.81694759714844" width="208"><g><svg viewBox="0 0 208 60.81694759714844" height="60.81694759714844" width="208"><g><svg viewBox="0 0 208 36.59642147117297" height="36.59642147117297" width="208"><g transform="matrix(1,0,0,1,0,0)"><svg width="208" viewBox="1.5 -35.400001525878906 201.19000244140625 35.400001525878906" height="36.59642147117297" data-palette-color="#f6f6f6"><path d="M41.55-35.4L53.5-35.4 45.4 0 31.6 0 27.5-20.1 23.4 0 9.6 0 1.5-35.4 13.45-35.4 16.65-13.1 21.45-35.4 33.55-35.4 38.35-13.1 41.55-35.4ZM87.5 0L75.3 0 68.65-12.7 68.6-12.7 68.6 0 57.5 0 57.5-35.4 74-35.4Q78.3-35.4 81.35-33.88 84.4-32.35 85.92-29.73 87.45-27.1 87.45-23.8L87.45-23.8Q87.45-20.25 85.47-17.5 83.5-14.75 79.8-13.55L79.8-13.55 87.5 0ZM68.6-26.1L68.6-20.1 73-20.1Q74.6-20.1 75.4-20.83 76.2-21.55 76.2-23.1L76.2-23.1Q76.2-24.5 75.37-25.3 74.55-26.1 73-26.1L73-26.1 68.6-26.1ZM91-35.4L102.09-35.4 102.09 0 91 0 91-35.4ZM105.09-35.4L134.89-35.4 134.89-26.6 125.49-26.6 125.49 0 114.39 0 114.39-26.6 105.09-26.6 105.09-35.4ZM135.89-35.4L165.69-35.4 165.69-26.6 156.29-26.6 156.29 0 145.19 0 145.19-26.6 135.89-26.6 135.89-35.4ZM190.19-35.4L202.69-35.4 189.99-10.75 189.99 0 178.89 0 178.89-10.75 166.19-35.4 178.89-35.4 184.54-22.85 190.19-35.4Z" opacity="1" transform="matrix(1,0,0,1,0,0)" fill="#000000" class="undefined-text-0" data-fill-palette-color="primary" id="text-0"></path></svg></g></svg></g><g transform="matrix(1,0,0,1,0,45.235958266401596)"><svg viewBox="0 0 208 15.58098933074685" height="15.58098933074685" width="208"><g transform="matrix(1,0,0,1,0,0)"><svg width="208" viewBox="4 -37.70000076293945 670.0700073242188 50.20000076293945" height="15.58098933074685" data-palette-color="#f6f6f6"><path d="M4 0L4-35 13-35Q23.5-35 26.7-26.2L26.7-26.2Q27.9-23 27.9-17.78 27.9-12.55 26.75-8.97 25.6-5.4 23.5-3.4 21.4-1.4 18.43-0.7 15.45 0 11.75 0L11.75 0 4 0ZM12.75-32.25L7.4-32.25 7.4-2.75 11.5-2.75Q14.1-2.75 16.5-3.2L16.5-3.2Q24.5-4.6 24.5-18.05L24.5-18.05Q24.5-25.6 21-29.2L21-29.2Q17.95-32.25 12.75-32.25L12.75-32.25ZM35.2-12.3L35.2-11.5Q35.2-2.7 43.6-2.7L43.6-2.7Q47.15-2.7 50.1-3.65L50.1-3.65Q50.85-3.9 51.15-4.05L51.15-4.05 51.9-1.4Q50.15-0.35 45.55 0.1L45.55 0.1Q44.25 0.2 42.8 0.2L42.8 0.2Q38.6 0.2 35.8-1.9L35.8-1.9Q31.95-4.75 31.95-11.4 31.95-18.05 35.42-21.63 38.9-25.2 43.85-25.2 48.8-25.2 51.3-22L51.3-22Q53.2-19.45 53.2-15.25L53.2-15.25Q53.2-14.25 53.1-13.15L53.1-13.15 35.25-13.15Q35.2-12.75 35.2-12.3L35.2-12.3ZM44.05-22.1L44.05-22.1Q40.95-22.1 38.75-20.23 36.55-18.35 35.7-15.4L35.7-15.4 50.25-15.4Q50-20.95 45.95-21.85L45.95-21.85Q45.05-22.1 44.05-22.1ZM73.7-16.4L73.45-21.65Q71.4-22.3 69.25-22.3L69.25-22.3Q64.9-22.3 62.27-19.5 59.65-16.7 59.65-11.6L59.65-11.6Q59.65-2.7 67.9-2.7L67.9-2.7Q71.2-2.7 74.7-3.8L74.7-3.8Q75.4-4 75.55-4.1L75.55-4.1 76.34-1.4Q74.59-0.35 70 0.1L70 0.1Q68.7 0.2 67.25 0.2L67.25 0.2Q63 0.2 60.25-1.9L60.25-1.9Q56.4-4.8 56.4-11.45 56.4-18.1 59.97-21.68 63.55-25.25 69.2-25.25L69.2-25.25Q71-25.25 73.02-24.78 75.05-24.3 76.15-23.3L76.15-23.3 76.15-16.75 73.7-16.4ZM83.49-12.3L83.49-11.5Q83.49-2.7 91.89-2.7L91.89-2.7Q95.44-2.7 98.39-3.65L98.39-3.65Q99.14-3.9 99.44-4.05L99.44-4.05 100.19-1.4Q98.44-0.35 93.84 0.1L93.84 0.1Q92.54 0.2 91.09 0.2L91.09 0.2Q86.89 0.2 84.09-1.9L84.09-1.9Q80.24-4.75 80.24-11.4 80.24-18.05 83.72-21.63 87.19-25.2 92.14-25.2 97.09-25.2 99.59-22L99.59-22Q101.49-19.45 101.49-15.25L101.49-15.25Q101.49-14.25 101.39-13.15L101.39-13.15 83.54-13.15Q83.49-12.75 83.49-12.3L83.49-12.3ZM92.34-22.1L92.34-22.1Q89.24-22.1 87.04-20.23 84.84-18.35 83.99-15.4L83.99-15.4 98.54-15.4Q98.29-20.95 94.24-21.85L94.24-21.85Q93.34-22.1 92.34-22.1ZM109.04-25.25L109.04-22.25Q112.79-25 116.14-25.15L116.14-25.15Q119.19-25.15 120.84-24.4 122.49-23.65 123.57-22.28 124.64-20.9 124.64-18.4L124.64-18.4 124.64 0 121.39 0 121.39-17.55Q121.39-19.4 120.59-20.4L120.59-20.4Q118.99-22.25 115.69-22.25L115.69-22.25Q112.54-22.1 109.04-20.2L109.04-20.2 109.04 0 105.79 0 105.79-25 109.04-25.25ZM141.49-3.6L142.09-0.9Q141.19 0 138.84 0L138.84 0Q135.54 0 134.39-1.7L134.39-1.7Q132.44-3.55 132.44-6.7L132.44-6.7 132.44-22.1 129.64-22.1 130.09-25 132.44-25 132.44-29.95 135.69-30.25 135.69-25 141.49-25 141.49-22.1 135.69-22.1 135.69-5.9Q135.69-3 138.69-3L138.69-3Q139.99-3 141.49-3.6L141.49-3.6ZM160.99-24.5L159.69-21.5Q158.89-21.95 157.99-21.95 157.09-21.95 156.99-21.9L156.99-21.9Q155.09-21.9 153.16-20.53 151.24-19.15 149.89-17.45L149.89-17.45 149.89 0 146.64 0 146.64-25 149.89-25.25 149.89-19.65Q151.74-22 153.04-22.95L153.04-22.95Q155.44-24.75 157.64-24.85L157.64-24.85Q157.94-24.9 158.74-24.9 159.54-24.9 160.99-24.5L160.99-24.5ZM164.18-19.9L163.28-22.3Q168.73-25 172.83-25.15L172.83-25.15Q176.08-25.15 177.86-24.33 179.63-23.5 180.73-22.03 181.83-20.55 181.83-17.9L181.83-17.9 181.83 0 178.58 0 178.58-1.9Q171.73 0.2 169.78 0.2L169.78 0.2Q169.68 0.2 169.63 0.2L169.63 0.2Q165.13 0.2 163.48-2.55L163.48-2.55Q162.88-3.55 162.81-4.5 162.73-5.45 162.73-6.1L162.73-6.1Q162.73-7.9 164.13-9.33 165.53-10.75 167.48-11.25L167.48-11.25Q170.78-12.1 178.58-12.75L178.58-12.75 178.58-16.8Q178.58-22.25 172.88-22.25L172.88-22.25Q168.88-22.25 164.18-19.9L164.18-19.9ZM165.78-5.7L165.78-5.7Q165.78-2.1 170.73-2.1L170.73-2.1Q174.68-2.1 178.58-3.8L178.58-3.8 178.58-10.95Q170.78-9.85 168.93-9.25L168.93-9.25Q165.78-8.25 165.78-5.7ZM190.58 0L187.33 0 187.33-37.25 190.58-37.5 190.58 0ZM196.63-25L199.88-25.25 199.88 0 196.63 0 196.63-25ZM198.13-31.7Q197.13-31.7 196.6-32.35 196.08-33 196.08-34 196.08-35 196.65-35.63 197.23-36.25 198.23-36.25 199.23-36.25 199.85-35.63 200.48-35 200.48-33.9 200.48-32.8 199.8-32.25 199.13-31.7 198.13-31.7ZM205.58-22.1L205.53-25 223.78-25 224.23-22.1 208.63-2.9 224.88-2.9 225.28 0 204.73 0 204.28-2.9 220.08-22.1 205.58-22.1ZM231.07-12.3L231.07-11.5Q231.07-2.7 239.47-2.7L239.47-2.7Q243.02-2.7 245.97-3.65L245.97-3.65Q246.72-3.9 247.02-4.05L247.02-4.05 247.77-1.4Q246.02-0.35 241.42 0.1L241.42 0.1Q240.12 0.2 238.67 0.2L238.67 0.2Q234.47 0.2 231.67-1.9L231.67-1.9Q227.82-4.75 227.82-11.4 227.82-18.05 231.3-21.63 234.77-25.2 239.72-25.2 244.67-25.2 247.17-22L247.17-22Q249.07-19.45 249.07-15.25L249.07-15.25Q249.07-14.25 248.97-13.15L248.97-13.15 231.12-13.15Q231.07-12.75 231.07-12.3L231.07-12.3ZM239.92-22.1L239.92-22.1Q236.82-22.1 234.62-20.23 232.42-18.35 231.57-15.4L231.57-15.4 246.12-15.4Q245.87-20.95 241.82-21.85L241.82-21.85Q240.92-22.1 239.92-22.1ZM265.67-25.25L265.67-25.25Q268.62-25.25 271.27-23.5L271.27-23.5 271.27-37.25 274.52-37.5 274.52-1.15 274.27-1.15Q272.72-0.5 269.1-0.15 265.47 0.2 264.07 0.2L264.07 0.2Q259.87 0.2 257.12-1.9L257.12-1.9Q253.27-4.8 253.27-11.45 253.27-18.1 256.85-21.68 260.42-25.25 265.67-25.25ZM271.27-3.2L271.27-21.35Q268.77-22.3 266.37-22.3L266.37-22.3Q261.77-22.3 259.15-19.5 256.52-16.7 256.52-11.55 256.52-6.4 259.37-4.3L259.37-4.3Q261.42-2.7 264.55-2.7 267.67-2.7 271.27-3.2L271.27-3.2ZM311.27-3.5Q309.62-1.85 307.59-1.03 305.57-0.2 304.12-0.1 302.67 0 301.27 0 299.87 0 298.22-0.25L298.22-0.25 298.22 12.25 294.97 12.5 294.97-23.7Q296.07-24.05 298.34-24.75 300.62-25.45 303.19-25.45 305.77-25.45 307.64-25.03 309.52-24.6 311.12-23.4L311.12-23.4Q314.87-20.5 314.87-13.8 314.87-7.1 311.27-3.5L311.27-3.5ZM298.22-21.7L298.22-2.8Q299.72-2.45 301.42-2.45L301.42-2.45Q306.32-2.45 308.97-5.35 311.62-8.25 311.62-13.5 311.62-18.75 308.92-21L308.92-21Q307.02-22.55 304.04-22.55 301.07-22.55 298.22-21.7L298.22-21.7ZM325.61-3.2L325.61-3.2Q326.71-2.8 329.11-2.8 331.51-2.8 335.31-4.75L335.31-4.75 335.31-25 338.56-25.25 338.56 0 335.31 0 335.31-2.7Q331.61 0.15 327.76 0.15L327.76 0.15Q322.96 0.15 320.81-2.7L320.81-2.7Q319.71-4.1 319.71-6.6L319.71-6.6 319.71-25 322.96-25.25 322.96-7.45Q322.96-4.35 325.61-3.2ZM348.31-37.5L348.31-23Q351.26-25.45 355.01-25.45L355.01-25.45Q361.41-25.45 363.96-19.8L363.96-19.8Q364.96-17.5 364.96-13.85L364.96-13.85Q364.96-7.1 361.41-3.55 357.86 0 352.21 0L352.21 0Q348.91 0 347.19-0.45 345.46-0.9 345.06-1.15L345.06-1.15 345.06-37.25 348.31-37.5ZM348.31-21.25L348.31-21.25 348.31-2.8Q349.76-2.45 351.46-2.45L351.46-2.45Q356.46-2.45 359.09-5.35 361.71-8.25 361.71-13.5 361.71-18.75 359.06-21L359.06-21Q357.21-22.55 354.26-22.55 351.31-22.55 348.31-21.25ZM372.26 0L369.01 0 369.01-37.25 372.26-37.5 372.26 0ZM378.31-25L381.56-25.25 381.56 0 378.31 0 378.31-25ZM379.81-31.7Q378.81-31.7 378.28-32.35 377.76-33 377.76-34 377.76-35 378.33-35.63 378.91-36.25 379.91-36.25 380.91-36.25 381.53-35.63 382.16-35 382.16-33.9 382.16-32.8 381.48-32.25 380.81-31.7 379.81-31.7ZM402.9-24.5L402.1-21.7Q400.3-22.3 397.2-22.3 394.1-22.3 392.4-21.2 390.7-20.1 390.7-18.48 390.7-16.85 391.7-16.1 392.7-15.35 394.2-14.83 395.7-14.3 397.48-13.8 399.25-13.3 400.75-12.5L400.75-12.5Q404.25-10.7 404.25-7.15 404.25-3.6 401.83-1.7 399.4 0.2 394.75 0.2L394.75 0.2Q392.4 0.2 390.23-0.28 388.05-0.75 386.9-1.6L386.9-1.6 388-4.25Q389.15-3.25 392.65-2.8L392.65-2.8Q393.75-2.65 394.9-2.65L394.9-2.65Q397.5-2.65 399.25-3.73 401-4.8 401-7L401-7Q401-8.5 400-9.35 399-10.2 397.5-10.78 396-11.35 394.23-11.8 392.45-12.25 390.95-12.98 389.45-13.7 388.45-14.88 387.45-16.05 387.45-18.05L387.45-18.05Q387.45-21.3 389.95-23.25 392.45-25.2 396.65-25.2L396.65-25.2Q397.7-25.2 398.8-25.08 399.9-24.95 400.8-24.85L400.8-24.85 402.9-24.5ZM411.9-37.5L411.9-22.15Q415.85-25 419.5-25.15L419.5-25.15Q422.6-25.15 424.25-24.4 425.9-23.65 426.95-22.28 428-20.9 428-18.4L428-18.4 428 0 424.75 0 424.75-17.55Q424.75-19.4 423.95-20.4L423.95-20.4Q422.35-22.25 419.05-22.25L419.05-22.25Q415.8-22.1 411.9-20.15L411.9-20.15 411.9 0 408.65 0 408.65-37.25 411.9-37.5ZM434.05-25L437.3-25.25 437.3 0 434.05 0 434.05-25ZM435.55-31.7Q434.55-31.7 434.02-32.35 433.5-33 433.5-34 433.5-35 434.07-35.63 434.65-36.25 435.65-36.25 436.65-36.25 437.27-35.63 437.9-35 437.9-33.9 437.9-32.8 437.22-32.25 436.55-31.7 435.55-31.7ZM447.15-25.25L447.15-22.25Q450.9-25 454.25-25.15L454.25-25.15Q457.3-25.15 458.95-24.4 460.6-23.65 461.67-22.28 462.75-20.9 462.75-18.4L462.75-18.4 462.75 0 459.5 0 459.5-17.55Q459.5-19.4 458.7-20.4L458.7-20.4Q457.1-22.25 453.8-22.25L453.8-22.25Q450.65-22.1 447.15-20.2L447.15-20.2 447.15 0 443.9 0 443.9-25 447.15-25.25ZM472.34-9.65L472.34-9.65Q468.64-11.5 468.64-16.6L468.64-16.6Q468.64-20.8 471.54-23 474.44-25.2 478.94-25.2L478.94-25.2Q480.14-25.2 481.89-24.95L481.89-24.95 491.29-25.2 491.19-23.3 485.74-23.3Q488.49-21.25 488.49-17.13 488.49-13 485.74-10.78 482.99-8.55 478.64-8.55L478.64-8.55Q475.84-8.55 473.99-9.05L473.99-9.05Q473.04-8.15 473.04-6.95L473.04-6.95Q473.04-5.25 474.92-4.5 476.79-3.75 479.34-3.4L479.34-3.4Q484.99-2.65 487.49-1.3L487.49-1.3Q491.09 0.7 491.09 4.85 491.09 9 487.14 11L487.14 11Q484.14 12.5 479.89 12.5 475.64 12.5 473.34 11.85L473.34 11.85Q467.29 10.1 467.29 5.35 467.29 0.6 472.64-2.7L472.64-2.7Q470.54-4.25 470.54-6.3 470.54-8.35 472.34-9.65ZM487.84 4.8L487.84 4.8Q487.84 1.55 483.54 0.3L483.54 0.3Q482.34-0.05 479.24-0.55 476.14-1.05 474.39-1.75L474.39-1.75Q470.54 1.45 470.54 4.45L470.54 4.45Q470.54 5.75 470.94 6.6 471.34 7.45 472.34 8.1L472.34 8.1Q474.54 9.6 479.04 9.6L479.04 9.6Q484.94 9.6 487.04 7.1L487.04 7.1Q487.84 6.15 487.84 4.8ZM485.09-17.25L485.09-17.25Q485.09-22.55 478.79-22.55L478.79-22.55Q475.79-22.55 473.84-21.18 471.89-19.8 471.89-16.98 471.89-14.15 473.29-12.68 474.69-11.2 478.02-11.2 481.34-11.2 483.22-12.8 485.09-14.4 485.09-17.25ZM528.54-3.5Q526.89-1.85 524.86-1.03 522.84-0.2 521.39-0.1 519.94 0 518.54 0 517.14 0 515.49-0.25L515.49-0.25 515.49 12.25 512.24 12.5 512.24-23.7Q513.34-24.05 515.61-24.75 517.89-25.45 520.46-25.45 523.04-25.45 524.91-25.03 526.79-24.6 528.39-23.4L528.39-23.4Q532.14-20.5 532.14-13.8 532.14-7.1 528.54-3.5L528.54-3.5ZM515.49-21.7L515.49-2.8Q516.99-2.45 518.69-2.45L518.69-2.45Q523.59-2.45 526.24-5.35 528.89-8.25 528.89-13.5 528.89-18.75 526.19-21L526.19-21Q524.29-22.55 521.31-22.55 518.34-22.55 515.49-21.7L515.49-21.7ZM539.44 0L536.19 0 536.19-37.25 539.44-37.5 539.44 0ZM545.48-19.9L544.58-22.3Q550.03-25 554.13-25.15L554.13-25.15Q557.38-25.15 559.16-24.33 560.93-23.5 562.03-22.03 563.13-20.55 563.13-17.9L563.13-17.9 563.13 0 559.88 0 559.88-1.9Q553.03 0.2 551.08 0.2L551.08 0.2Q550.98 0.2 550.93 0.2L550.93 0.2Q546.43 0.2 544.78-2.55L544.78-2.55Q544.18-3.55 544.11-4.5 544.03-5.45 544.03-6.1L544.03-6.1Q544.03-7.9 545.43-9.33 546.83-10.75 548.78-11.25L548.78-11.25Q552.08-12.1 559.88-12.75L559.88-12.75 559.88-16.8Q559.88-22.25 554.18-22.25L554.18-22.25Q550.18-22.25 545.48-19.9L545.48-19.9ZM547.08-5.7L547.08-5.7Q547.08-2.1 552.03-2.1L552.03-2.1Q555.98-2.1 559.88-3.8L559.88-3.8 559.88-10.95Q552.08-9.85 550.23-9.25L550.23-9.25Q547.08-8.25 547.08-5.7ZM578.48-3.6L579.08-0.9Q578.18 0 575.83 0L575.83 0Q572.53 0 571.38-1.7L571.38-1.7Q569.43-3.55 569.43-6.7L569.43-6.7 569.43-22.1 566.63-22.1 567.08-25 569.43-25 569.43-29.95 572.68-30.25 572.68-25 578.48-25 578.48-22.1 572.68-22.1 572.68-5.9Q572.68-3 575.68-3L575.68-3Q576.98-3 578.48-3.6L578.48-3.6ZM585.43-25L585.43-30.9Q585.43-37.7 592.93-37.7L592.93-37.7Q594.88-37.7 596.38-37.3L596.38-37.3 595.88-34.5Q594.18-34.75 593-34.75 591.83-34.75 590.88-34.35L590.88-34.35Q588.68-33.35 588.68-29.75L588.68-29.75 588.68-25 594.88-25 594.88-22.1 588.68-22.1 588.68 0 585.43 0 585.43-22.1 582.63-22.1 583.08-25 585.43-25ZM597.42-6.4L597.42-6.4Q596.52-8.8 596.52-12L596.52-12Q596.52-18.15 599.98-21.68 603.42-25.2 608.63-25.2L608.63-25.2Q616.77-25.2 619.32-18.6L619.32-18.6Q620.27-16.2 620.27-13L620.27-13Q620.27-6.85 616.82-3.33 613.38 0.2 608.17 0.2L608.17 0.2Q600.02 0.2 597.42-6.4ZM599.77-12.35Q599.77-7.75 602.15-5.23 604.52-2.7 608.27-2.7 612.02-2.7 614.52-5.38 617.02-8.05 617.02-12.65 617.02-17.25 614.67-19.78 612.32-22.3 608.55-22.3 604.77-22.3 602.27-19.63 599.77-16.95 599.77-12.35ZM638.67-24.5L637.37-21.5Q636.57-21.95 635.67-21.95 634.77-21.95 634.67-21.9L634.67-21.9Q632.77-21.9 630.85-20.53 628.92-19.15 627.57-17.45L627.57-17.45 627.57 0 624.32 0 624.32-25 627.57-25.25 627.57-19.65Q629.42-22 630.72-22.95L630.72-22.95Q633.12-24.75 635.32-24.85L635.32-24.85Q635.62-24.9 636.42-24.9 637.22-24.9 638.67-24.5L638.67-24.5ZM650.47-22.25L650.47-22.25Q647.67-22.1 644.42-20.4L644.42-20.4 644.42 0 641.17 0 641.17-25 644.42-25.25 644.42-22.45Q647.77-25 650.92-25.15L650.92-25.15Q656.22-25.15 658.22-22.5L658.22-22.5Q662.02-25 665.57-25.15L665.57-25.15Q668.62-25.15 670.27-24.4 671.92-23.65 672.99-22.28 674.07-20.9 674.07-18.4L674.07-18.4 674.07 0 670.82 0 670.82-17.55Q670.82-19.4 669.97-20.4L669.97-20.4Q668.42-22.25 665.57-22.25L665.57-22.25Q662.57-22.25 659.17-20.45L659.17-20.45Q659.42-19.45 659.42-18.4L659.42-18.4 659.42 0 656.17 0 656.17-17.55Q656.17-19.4 655.37-20.4L655.37-20.4Q653.77-22.25 650.47-22.25Z" opacity="1" transform="matrix(1,0,0,1,0,0)" fill="#000000" class="undefined-text-1" data-fill-palette-color="secondary" id="text-1"></path></svg></g></svg></g></svg></g></svg></g><g transform="matrix(1,0,0,1,48.49198766899476,0)"><svg viewBox="0 0 112.05602466201044 84.04902157925913" height="84.04902157925913" width="112.05602466201044"><g><svg xmlns="http://www.w3.org/2000/svg" viewBox="8 10.999999046325684 48 42" x="8" y="0" height="84.04902157925913" width="96.05602466201044" class="icon-icon-0" data-fill-palette-color="accent" id="icon-0"><g data-name="11-publishing" fill="#f6f6f6" data-fill-palette-color="accent"><path d="M56 20a5 5 0 0 0-10 0V46a1.37 1.37 0 0 0 0.07 0.34s0 0 0 0.08a0.39 0.39 0 0 0 0.06 0.11l4 6a1 1 0 0 0 1.66 0l4-6a0.39 0.39 0 0 0 0.06-0.11s0 0 0-0.08A1.37 1.37 0 0 0 56 46V20Zm-8 0a3 3 0 0 1 6 0V45H48Zm3 30.2L48.87 47h4.26ZM36.35 11H13.65A5.65 5.65 0 0 0 8 16.65v30.7A5.65 5.65 0 0 0 13.65 53h22.7A5.65 5.65 0 0 0 42 47.35V16.65A5.65 5.65 0 0 0 36.35 11ZM40 47.35A3.66 3.66 0 0 1 36.35 51H13.65A3.66 3.66 0 0 1 10 47.35V16.65A3.66 3.66 0 0 1 13.65 13h22.7A3.66 3.66 0 0 1 40 16.65ZM35 21a1 1 0 0 1-1 1H16a1 1 0 0 1 0-2H34A1 1 0 0 1 35 21Zm0 7a1 1 0 0 1-1 1H16a1 1 0 0 1 0-2H34A1 1 0 0 1 35 28Zm0 7a1 1 0 0 1-1 1H16a1 1 0 0 1 0-2H34A1 1 0 0 1 35 35Zm-9 7a1 1 0 0 1-1 1H16a1 1 0 0 1 0-2h9A1 1 0 0 1 26 42Z" fill="#000000" data-fill-palette-color="accent"></path></g></svg></g></svg></g><g><rect width="8.243987668994784" height="3.3003030557773365" y="79.7487185234818" x="160.5480123310052" fill="#000000" data-fill-palette-color="secondary"></rect><rect width="8.243987668994784" height="3.3003030557773365" y="79.7487185234818" x="40.247999999999976" fill="#000000" data-fill-palette-color="secondary"></rect></g></svg></g></svg></g></svg></g><defs></defs></svg><rect width="320" height="360" fill="none" stroke="none" visibility="hidden"></rect></g></svg></g></svg>