<svg width="174" height="57" viewBox="0 0 174 57" fill="none" xmlns="http://www.w3.org/2000/svg">
<rect width="174" height="57" fill="white"/>
<path d="M1.98153 14.8182H9.81818L16.4659 31.0284H16.7727L23.4205 14.8182H31.2571V41H25.0952V24.9176H24.8778L18.5881 40.8338H14.6506L8.3608 24.8281H8.14347V41H1.98153V14.8182ZM59.9158 27.9091C59.9158 30.7898 59.3619 33.2315 58.2539 35.2344C57.146 37.2372 55.646 38.7585 53.7539 39.7983C51.8704 40.8381 49.7567 41.358 47.413 41.358C45.0607 41.358 42.9428 40.8338 41.0593 39.7855C39.1758 38.7372 37.68 37.2159 36.5721 35.2216C35.4727 33.2187 34.9229 30.7812 34.9229 27.9091C34.9229 25.0284 35.4727 22.5866 36.5721 20.5838C37.68 18.581 39.1758 17.0597 41.0593 16.0199C42.9428 14.9801 45.0607 14.4602 47.413 14.4602C49.7567 14.4602 51.8704 14.9801 53.7539 16.0199C55.646 17.0597 57.146 18.581 58.2539 20.5838C59.3619 22.5866 59.9158 25.0284 59.9158 27.9091ZM53.4471 27.9091C53.4471 26.2045 53.2042 24.7642 52.7184 23.5881C52.2411 22.4119 51.5508 21.5213 50.6474 20.9162C49.7525 20.3111 48.6744 20.0085 47.413 20.0085C46.1602 20.0085 45.082 20.3111 44.1786 20.9162C43.2752 21.5213 42.5806 22.4119 42.0948 23.5881C41.6175 24.7642 41.3789 26.2045 41.3789 27.9091C41.3789 29.6136 41.6175 31.054 42.0948 32.2301C42.5806 33.4062 43.2752 34.2969 44.1786 34.902C45.082 35.5071 46.1602 35.8097 47.413 35.8097C48.6744 35.8097 49.7525 35.5071 50.6474 34.902C51.5508 34.2969 52.2411 33.4062 52.7184 32.2301C53.2042 31.054 53.4471 29.6136 53.4471 27.9091ZM85.8931 14.8182V41H80.5238L70.1048 25.8892H69.9386V41H63.6104V14.8182H69.0565L79.3604 29.9034H79.5778V14.8182H85.8931ZM96.2003 14.8182V41H89.8722V14.8182H96.2003ZM99.3164 19.9574V14.8182H121.446V19.9574H113.507V41H107.268V19.9574H99.3164ZM148.053 27.9091C148.053 30.7898 147.499 33.2315 146.391 35.2344C145.283 37.2372 143.783 38.7585 141.891 39.7983C140.007 40.8381 137.893 41.358 135.55 41.358C133.197 41.358 131.08 40.8338 129.196 39.7855C127.313 38.7372 125.817 37.2159 124.709 35.2216C123.609 33.2187 123.06 30.7812 123.06 27.9091C123.06 25.0284 123.609 22.5866 124.709 20.5838C125.817 18.581 127.313 17.0597 129.196 16.0199C131.08 14.9801 133.197 14.4602 135.55 14.4602C137.893 14.4602 140.007 14.9801 141.891 16.0199C143.783 17.0597 145.283 18.581 146.391 20.5838C147.499 22.5866 148.053 25.0284 148.053 27.9091ZM141.584 27.9091C141.584 26.2045 141.341 24.7642 140.855 23.5881C140.378 22.4119 139.688 21.5213 138.784 20.9162C137.889 20.3111 136.811 20.0085 135.55 20.0085C134.297 20.0085 133.219 20.3111 132.315 20.9162C131.412 21.5213 130.717 22.4119 130.232 23.5881C129.754 24.7642 129.516 26.2045 129.516 27.9091C129.516 29.6136 129.754 31.054 130.232 32.2301C130.717 33.4062 131.412 34.2969 132.315 34.902C133.219 35.5071 134.297 35.8097 135.55 35.8097C136.811 35.8097 137.889 35.5071 138.784 34.902C139.688 34.2969 140.378 33.4062 140.855 32.2301C141.341 31.054 141.584 29.6136 141.584 27.9091ZM151.747 41V14.8182H162.562C164.523 14.8182 166.214 15.1719 167.638 15.8793C169.07 16.5781 170.173 17.5838 170.949 18.8963C171.724 20.2003 172.112 21.7472 172.112 23.5369C172.112 25.3523 171.716 26.8949 170.923 28.1648C170.131 29.4261 169.006 30.3892 167.548 31.054C166.091 31.7102 164.365 32.0384 162.371 32.0384H155.531V27.0526H161.195C162.149 27.0526 162.946 26.929 163.585 26.6818C164.233 26.4261 164.723 26.0426 165.055 25.5312C165.388 25.0114 165.554 24.3466 165.554 23.5369C165.554 22.7273 165.388 22.0582 165.055 21.5298C164.723 20.9929 164.233 20.5923 163.585 20.3281C162.938 20.0554 162.141 19.919 161.195 19.919H158.075V41H151.747ZM166.487 29.0341L173.007 41H166.104L159.712 29.0341H166.487Z" fill="#1890FF"/>
</svg>
